<svg xmlns="http://www.w3.org/2000/svg" height="937.5pt" version="1.1" viewBox="0 0 937.5 937.5" width="937.5pt">
<g id="surface1">
<path d="M 875 125 L 875 156.25 C 892.261719 156.25 906.25 170.238281 906.25 187.5 L 906.25 656.25 L 31.25 656.25 L 31.25 187.5 C 31.25 170.238281 45.238281 156.25 62.5 156.25 L 62.5 125 C 27.984375 125 0 152.984375 0 187.5 L 0 718.75 C 0 753.265625 27.984375 781.25 62.5 781.25 L 369.625 781.25 L 332.125 906.25 L 296.875 906.25 L 296.875 937.5 L 640.625 937.5 L 640.625 906.25 L 605.375 906.25 L 567.875 781.25 L 875 781.25 C 909.515625 781.25 937.5 753.265625 937.5 718.75 L 937.5 187.5 C 937.5 152.984375 909.515625 125 875 125 Z M 572.75 906.25 L 364.75 906.25 L 402.25 781.25 L 535.25 781.25 Z M 906.25 718.75 C 906.25 736.011719 892.261719 750 875 750 L 62.5 750 C 45.238281 750 31.25 736.011719 31.25 718.75 L 31.25 687.5 L 906.25 687.5 Z M 906.25 718.75 " style=" stroke:none;fill-rule:nonzero;fill:rgb(0%,0%,0%);fill-opacity:1;" />
<path d="M 156.25 625 L 781.25 625 C 815.765625 625 843.75 597.015625 843.75 562.5 L 843.75 62.5 C 843.75 27.984375 815.765625 0 781.25 0 L 156.25 0 C 121.734375 0 93.75 27.984375 93.75 62.5 L 93.75 562.5 C 93.75 597.015625 121.734375 625 156.25 625 Z M 125 62.5 C 125 45.238281 138.988281 31.25 156.25 31.25 L 781.25 31.25 C 798.511719 31.25 812.5 45.238281 812.5 62.5 L 812.5 562.5 C 812.5 579.761719 798.511719 593.75 781.25 593.75 L 156.25 593.75 C 138.988281 593.75 125 579.761719 125 562.5 Z M 125 62.5 " style=" stroke:none;fill-rule:nonzero;fill:rgb(0%,0%,0%);fill-opacity:1;" />
<path d="M 156.25 125 L 781.25 125 L 781.25 156.25 L 156.25 156.25 Z M 156.25 125 " style=" stroke:none;fill-rule:nonzero;fill:rgb(0%,0%,0%);fill-opacity:1;" />
<path d="M 156.25 203.125 L 250 203.125 L 250 234.375 L 156.25 234.375 Z M 156.25 203.125 " style=" stroke:none;fill-rule:nonzero;fill:rgb(0%,0%,0%);fill-opacity:1;" />
<path d="M 156.25 281.25 L 250 281.25 L 250 312.5 L 156.25 312.5 Z M 156.25 281.25 " style=" stroke:none;fill-rule:nonzero;fill:rgb(0%,0%,0%);fill-opacity:1;" />
<path d="M 156.25 515.625 L 234.375 515.625 L 234.375 546.875 L 156.25 546.875 Z M 156.25 515.625 " style=" stroke:none;fill-rule:nonzero;fill:rgb(0%,0%,0%);fill-opacity:1;" />
<path d="M 156.25 62.5 L 187.5 62.5 L 187.5 93.75 L 156.25 93.75 Z M 156.25 62.5 " style=" stroke:none;fill-rule:nonzero;fill:rgb(0%,0%,0%);fill-opacity:1;" />
<path d="M 218.75 62.5 L 250 62.5 L 250 93.75 L 218.75 93.75 Z M 218.75 62.5 " style=" stroke:none;fill-rule:nonzero;fill:rgb(0%,0%,0%);fill-opacity:1;" />
<path d="M 281.25 62.5 L 312.5 62.5 L 312.5 93.75 L 281.25 93.75 Z M 281.25 62.5 " style=" stroke:none;fill-rule:nonzero;fill:rgb(0%,0%,0%);fill-opacity:1;" />
<path d="M 649.78125 406.25 L 692.078125 448.546875 L 714.171875 426.453125 L 667.296875 379.578125 C 664.367188 376.648438 660.394531 375 656.25 375 L 606.542969 375 C 604.566406 364.316406 601.558594 353.851562 597.546875 343.75 L 625 343.75 C 632.421875 343.75 638.824219 338.523438 640.3125 331.25 L 655.9375 253.125 L 625.3125 246.875 L 612.207031 312.5 L 580.957031 312.5 C 568.222656 293.480469 551.195312 277.714844 531.25 266.484375 L 531.25 250 C 531.25 215.484375 503.265625 187.5 468.75 187.5 C 434.234375 187.5 406.25 215.484375 406.25 250 L 406.25 265.625 L 407.8125 265.625 C 387.15625 276.878906 369.539062 292.964844 356.46875 312.5 L 325.21875 312.5 L 312.109375 246.875 L 281.488281 253 L 297.113281 331.125 C 298.546875 338.476562 305.003906 343.78125 312.5 343.75 L 339.953125 343.75 C 335.941406 353.851562 332.933594 364.316406 330.957031 375 L 281.25 375 C 277.105469 375 273.132812 376.648438 270.203125 379.578125 L 223.328125 426.453125 L 245.421875 448.546875 L 287.71875 406.25 L 328.125 406.25 C 328.125 416.738281 329.070312 427.191406 330.957031 437.5 L 312.5 437.5 C 306.101562 437.496094 300.359375 441.382812 297.976562 447.3125 L 266.726562 525.4375 L 295.773438 537.0625 L 323.070312 468.75 L 339.953125 468.75 C 359.472656 523.554688 410.605469 560.765625 468.75 562.5 C 526.90625 560.765625 578.03125 523.554688 597.546875 468.75 L 614.429688 468.75 L 641.726562 537.0625 L 670.773438 525.4375 L 639.523438 447.3125 C 637.140625 441.382812 631.398438 437.496094 625 437.5 L 606.542969 437.5 C 608.429688 427.191406 609.375 416.738281 609.375 406.25 Z M 437.5 250 C 437.5 232.738281 451.488281 218.75 468.75 218.75 C 486.011719 218.75 500 232.738281 500 250 L 500 254.015625 C 479.5 248.664062 458 248.664062 437.5 254.015625 Z M 453.125 529.835938 C 400.214844 521.113281 359.375 469.09375 359.375 406.25 C 359.320312 384.546875 364.382812 363.128906 374.171875 343.75 L 453.125 343.75 Z M 396.660156 312.5 C 415.332031 292.570312 441.429688 281.25 468.75 281.25 C 496.070312 281.25 522.167969 292.570312 540.839844 312.5 Z M 484.375 529.835938 L 484.375 343.75 L 563.328125 343.75 C 573.117188 363.128906 578.179688 384.546875 578.125 406.25 C 578.125 469.09375 537.285156 521.113281 484.375 529.835938 Z M 484.375 529.835938 " style=" stroke:none;fill-rule:nonzero;fill:rgb(0%,0%,0%);fill-opacity:1;" />
<path d="M 156.25 359.375 L 203.125 359.375 L 203.125 390.625 L 156.25 390.625 Z M 156.25 359.375 " style=" stroke:none;fill-rule:nonzero;fill:rgb(0%,0%,0%);fill-opacity:1;" />
<path d="M 156.25 437.5 L 187.5 437.5 L 187.5 468.75 L 156.25 468.75 Z M 156.25 437.5 " style=" stroke:none;fill-rule:nonzero;fill:rgb(0%,0%,0%);fill-opacity:1;" />
<path d="M 687.5 203.125 L 781.25 203.125 L 781.25 234.375 L 687.5 234.375 Z M 687.5 203.125 " style=" stroke:none;fill-rule:nonzero;fill:rgb(0%,0%,0%);fill-opacity:1;" />
<path d="M 687.5 281.25 L 781.25 281.25 L 781.25 312.5 L 687.5 312.5 Z M 687.5 281.25 " style=" stroke:none;fill-rule:nonzero;fill:rgb(0%,0%,0%);fill-opacity:1;" />
<path d="M 703.125 515.625 L 781.25 515.625 L 781.25 546.875 L 703.125 546.875 Z M 703.125 515.625 " style=" stroke:none;fill-rule:nonzero;fill:rgb(0%,0%,0%);fill-opacity:1;" />
<path d="M 734.375 359.375 L 781.25 359.375 L 781.25 390.625 L 734.375 390.625 Z M 734.375 359.375 " style=" stroke:none;fill-rule:nonzero;fill:rgb(0%,0%,0%);fill-opacity:1;" />
<path d="M 750 437.5 L 781.25 437.5 L 781.25 468.75 L 750 468.75 Z M 750 437.5 " style=" stroke:none;fill-rule:nonzero;fill:rgb(0%,0%,0%);fill-opacity:1;" />
</g>
</svg>