<svg xmlns="http://www.w3.org/2000/svg" height="933pt" version="1.1" viewBox="0 0 933.74981 933" width="933pt">
<g id="surface1">
<path d="M 684.824219 373.765625 L 715.9375 373.765625 L 715.9375 467.113281 L 684.824219 467.113281 Z M 684.824219 373.765625 " style=" stroke:none;fill-rule:nonzero;fill:rgb(0%,0%,0%);fill-opacity:1;" />
<path d="M 684.824219 0.375 L 715.9375 0.375 L 715.9375 93.71875 L 684.824219 93.71875 Z M 684.824219 0.375 " style=" stroke:none;fill-rule:nonzero;fill:rgb(0%,0%,0%);fill-opacity:1;" />
<path d="M 840.402344 218.1875 L 933.75 218.1875 L 933.75 249.300781 L 840.402344 249.300781 Z M 840.402344 218.1875 " style=" stroke:none;fill-rule:nonzero;fill:rgb(0%,0%,0%);fill-opacity:1;" />
<path d="M 467.011719 218.1875 L 560.355469 218.1875 L 560.355469 249.300781 L 467.011719 249.300781 Z M 467.011719 218.1875 " style=" stroke:none;fill-rule:nonzero;fill:rgb(0%,0%,0%);fill-opacity:1;" />
<path d="M 788.386719 123.734375 L 854.402344 57.722656 L 876.402344 79.730469 L 810.390625 145.730469 Z M 788.386719 123.734375 " style=" stroke:none;fill-rule:nonzero;fill:rgb(0%,0%,0%);fill-opacity:1;" />
<path d="M 524.367188 79.742188 L 546.367188 57.730469 L 612.375 123.738281 L 590.375 145.738281 Z M 524.367188 79.742188 " style=" stroke:none;fill-rule:nonzero;fill:rgb(0%,0%,0%);fill-opacity:1;" />
<path d="M 788.375 343.75 L 810.378906 321.742188 L 876.375 387.746094 L 854.378906 409.753906 Z M 788.375 343.75 " style=" stroke:none;fill-rule:nonzero;fill:rgb(0%,0%,0%);fill-opacity:1;" />
<path d="M 67.070312 929.285156 C 73.144531 935.359375 82.992188 935.359375 89.070312 929.285156 L 625.921875 392.652344 L 773.894531 244.746094 C 779.960938 238.667969 779.960938 228.820312 773.894531 222.742188 L 711.382812 160.230469 C 705.304688 154.164062 695.457031 154.164062 689.378906 160.230469 L 541.40625 308.148438 L 4.550781 844.773438 C -1.515625 850.855469 -1.515625 860.703125 4.550781 866.777344 Z M 700.386719 193.292969 L 740.832031 233.738281 L 614.8125 359.652344 L 574.355469 319.210938 Z M 552.402344 341.089844 L 592.859375 381.546875 L 78.074219 896.289062 L 37.617188 855.832031 Z M 552.402344 341.089844 " style=" stroke:none;fill-rule:nonzero;fill:rgb(0%,0%,0%);fill-opacity:1;" />
</g>
</svg>