<svg xmlns="http://www.w3.org/2000/svg" height="937.5pt" version="1.1" viewBox="0 0 937.5 937.5" width="937.5pt">
<g id="surface1">
<path d="M 921.875 531.25 L 796.875 531.25 C 788.242188 531.25 781.25 538.242188 781.25 546.875 L 781.25 670.773438 L 693.183594 582.703125 C 686.988281 576.84375 677.296875 576.84375 671.09375 582.703125 L 582.703125 671.09375 C 576.605469 677.191406 576.605469 687.085938 582.703125 693.183594 L 670.773438 781.25 L 546.875 781.25 C 538.242188 781.25 531.25 788.242188 531.25 796.875 L 531.25 921.875 C 531.25 930.507812 538.242188 937.5 546.875 937.5 L 859.375 937.5 C 902.5 937.445312 937.445312 902.5 937.5 859.375 L 937.5 546.875 C 937.5 538.242188 930.507812 531.25 921.875 531.25 Z M 656.25 906.25 L 562.5 906.25 L 562.5 812.5 L 656.25 812.5 Z M 781.25 714.953125 L 781.25 847.546875 L 704.226562 770.53125 L 770.53125 704.226562 Z M 615.84375 682.140625 L 682.140625 615.84375 L 748.4375 682.140625 L 682.140625 748.4375 Z M 687.5 906.25 L 687.5 812.5 L 702.023438 812.5 L 795.773438 906.25 Z M 906.25 859.375 C 906.25 885.257812 885.257812 906.25 859.375 906.25 L 859.265625 906.25 L 859.265625 905.816406 C 846.835938 906.054688 834.851562 901.191406 826.113281 892.359375 C 817.382812 883.597656 812.496094 871.734375 812.5 859.375 L 812.5 812.5 L 906.25 812.5 Z M 906.25 781.25 L 812.5 781.25 L 812.5 687.5 L 906.25 687.5 Z M 906.25 656.25 L 812.5 656.25 L 812.5 562.5 L 906.25 562.5 Z M 906.25 656.25 " style=" stroke:none;fill-rule:nonzero;fill:rgb(0%,0%,0%);fill-opacity:1;" />
<path d="M 843.75 843.75 L 875 843.75 L 875 875 L 843.75 875 Z M 843.75 843.75 " style=" stroke:none;fill-rule:nonzero;fill:rgb(0%,0%,0%);fill-opacity:1;" />
<path d="M 468.75 671.875 L 546.875 671.875 L 546.875 703.125 L 468.75 703.125 Z M 468.75 671.875 " style=" stroke:none;fill-rule:nonzero;fill:rgb(0%,0%,0%);fill-opacity:1;" />
<path d="M 875 0 L 187.5 0 C 152.984375 0 125 27.984375 125 62.5 L 125 421.875 L 156.25 421.875 L 156.25 62.5 C 156.25 45.238281 170.238281 31.25 187.5 31.25 L 875 31.25 C 892.261719 31.25 906.25 45.238281 906.25 62.5 L 906.25 500 L 937.5 500 L 937.5 62.5 C 937.5 27.984375 909.515625 0 875 0 Z M 875 0 " style=" stroke:none;fill-rule:nonzero;fill:rgb(0%,0%,0%);fill-opacity:1;" />
<path d="M 187.5 62.5 L 218.75 62.5 L 218.75 93.75 L 187.5 93.75 Z M 187.5 62.5 " style=" stroke:none;fill-rule:nonzero;fill:rgb(0%,0%,0%);fill-opacity:1;" />
<path d="M 250 62.5 L 281.25 62.5 L 281.25 93.75 L 250 93.75 Z M 250 62.5 " style=" stroke:none;fill-rule:nonzero;fill:rgb(0%,0%,0%);fill-opacity:1;" />
<path d="M 312.5 62.5 L 343.75 62.5 L 343.75 93.75 L 312.5 93.75 Z M 312.5 62.5 " style=" stroke:none;fill-rule:nonzero;fill:rgb(0%,0%,0%);fill-opacity:1;" />
<path d="M 187.5 125 L 875 125 L 875 156.25 L 187.5 156.25 Z M 187.5 125 " style=" stroke:none;fill-rule:nonzero;fill:rgb(0%,0%,0%);fill-opacity:1;" />
<path d="M 734.375 437.5 L 875 437.5 L 875 468.75 L 734.375 468.75 Z M 734.375 437.5 " style=" stroke:none;fill-rule:nonzero;fill:rgb(0%,0%,0%);fill-opacity:1;" />
<path d="M 468.75 515.625 L 750 515.625 L 750 546.875 L 468.75 546.875 Z M 468.75 515.625 " style=" stroke:none;fill-rule:nonzero;fill:rgb(0%,0%,0%);fill-opacity:1;" />
<path d="M 640.625 281.25 L 812.5 281.25 L 812.5 312.5 L 640.625 312.5 Z M 640.625 281.25 " style=" stroke:none;fill-rule:nonzero;fill:rgb(0%,0%,0%);fill-opacity:1;" />
<path d="M 640.625 203.125 L 765.625 203.125 L 765.625 234.375 L 640.625 234.375 Z M 640.625 203.125 " style=" stroke:none;fill-rule:nonzero;fill:rgb(0%,0%,0%);fill-opacity:1;" />
<path d="M 796.875 203.125 L 875 203.125 L 875 234.375 L 796.875 234.375 Z M 796.875 203.125 " style=" stroke:none;fill-rule:nonzero;fill:rgb(0%,0%,0%);fill-opacity:1;" />
<path d="M 843.75 281.25 L 875 281.25 L 875 312.5 L 843.75 312.5 Z M 843.75 281.25 " style=" stroke:none;fill-rule:nonzero;fill:rgb(0%,0%,0%);fill-opacity:1;" />
<path d="M 640.625 359.375 L 875 359.375 L 875 390.625 L 640.625 390.625 Z M 640.625 359.375 " style=" stroke:none;fill-rule:nonzero;fill:rgb(0%,0%,0%);fill-opacity:1;" />
<path d="M 562.5 437.5 L 703.125 437.5 L 703.125 468.75 L 562.5 468.75 Z M 562.5 437.5 " style=" stroke:none;fill-rule:nonzero;fill:rgb(0%,0%,0%);fill-opacity:1;" />
<path d="M 468.75 593.75 L 593.75 593.75 L 593.75 625 L 468.75 625 Z M 468.75 593.75 " style=" stroke:none;fill-rule:nonzero;fill:rgb(0%,0%,0%);fill-opacity:1;" />
<path d="M 531.25 343.75 L 531.25 375 C 531.25 383.632812 524.257812 390.625 515.625 390.625 L 484.375 390.625 L 484.375 421.875 L 515.625 421.875 C 541.507812 421.875 562.5 400.882812 562.5 375 L 562.5 350.21875 L 589.171875 323.546875 C 595.269531 317.441406 595.269531 307.558594 589.171875 301.453125 L 562.5 274.78125 L 562.5 250 C 562.5 224.117188 541.507812 203.125 515.625 203.125 L 484.375 203.125 L 484.375 234.375 L 515.625 234.375 C 524.257812 234.375 531.25 241.367188 531.25 250 L 531.25 281.25 C 531.25 285.394531 532.898438 289.367188 535.828125 292.296875 L 556.03125 312.5 L 535.828125 332.703125 C 532.898438 335.632812 531.25 339.605469 531.25 343.75 Z M 531.25 343.75 " style=" stroke:none;fill-rule:nonzero;fill:rgb(0%,0%,0%);fill-opacity:1;" />
<path d="M 281.25 281.25 L 281.25 250 C 281.25 241.367188 288.242188 234.375 296.875 234.375 L 328.125 234.375 L 328.125 203.125 L 296.875 203.125 C 270.992188 203.125 250 224.117188 250 250 L 250 274.78125 L 223.328125 301.453125 C 217.230469 307.558594 217.230469 317.441406 223.328125 323.546875 L 250 350.21875 L 250 375 C 250 400.882812 270.992188 421.875 296.875 421.875 L 328.125 421.875 L 328.125 390.625 L 296.875 390.625 C 288.242188 390.625 281.25 383.632812 281.25 375 L 281.25 343.75 C 281.25 339.605469 279.601562 335.632812 276.671875 332.703125 L 256.46875 312.5 L 276.671875 292.296875 C 279.601562 289.367188 281.25 285.394531 281.25 281.25 Z M 281.25 281.25 " style=" stroke:none;fill-rule:nonzero;fill:rgb(0%,0%,0%);fill-opacity:1;" />
<path d="M 328.125 328.125 L 359.375 328.125 L 359.375 359.375 L 328.125 359.375 Z M 328.125 328.125 " style=" stroke:none;fill-rule:nonzero;fill:rgb(0%,0%,0%);fill-opacity:1;" />
<path d="M 390.625 328.125 L 421.875 328.125 L 421.875 359.375 L 390.625 359.375 Z M 390.625 328.125 " style=" stroke:none;fill-rule:nonzero;fill:rgb(0%,0%,0%);fill-opacity:1;" />
<path d="M 453.125 328.125 L 484.375 328.125 L 484.375 359.375 L 453.125 359.375 Z M 453.125 328.125 " style=" stroke:none;fill-rule:nonzero;fill:rgb(0%,0%,0%);fill-opacity:1;" />
<path d="M 46.875 937.5 L 390.625 937.5 C 416.507812 937.5 437.5 916.507812 437.5 890.625 L 437.5 500 C 437.5 474.117188 416.507812 453.125 390.625 453.125 L 46.875 453.125 C 20.992188 453.125 0 474.117188 0 500 L 0 890.625 C 0 916.507812 20.992188 937.5 46.875 937.5 Z M 406.25 890.625 C 406.25 899.257812 399.257812 906.25 390.625 906.25 L 156.25 906.25 L 156.25 609.375 L 406.25 609.375 Z M 31.25 500 C 31.25 491.367188 38.242188 484.375 46.875 484.375 L 390.625 484.375 C 399.257812 484.375 406.25 491.367188 406.25 500 L 406.25 578.125 L 31.25 578.125 Z M 31.25 609.375 L 125 609.375 L 125 906.25 L 46.875 906.25 C 38.242188 906.25 31.25 899.257812 31.25 890.625 Z M 31.25 609.375 " style=" stroke:none;fill-rule:nonzero;fill:rgb(0%,0%,0%);fill-opacity:1;" />
</g>
</svg>