<svg xmlns="http://www.w3.org/2000/svg" height="937pt" version="1.1" viewBox="0 0 937.49927 937" width="937pt">
<g id="surface1">
<path d="M 15.625 281.476562 L 78.121094 281.476562 C 85.660156 281.46875 92.125 276.074219 93.472656 268.652344 L 115.347656 148.105469 C 119.398438 125.800781 138.84375 109.589844 161.511719 109.613281 L 249.976562 109.613281 L 249.976562 778.894531 C 249.988281 792.367188 241.375 804.324219 228.601562 808.582031 L 120.054688 844.714844 C 113.667969 846.84375 109.363281 852.816406 109.363281 859.546875 L 109.363281 922.039062 C 109.363281 930.671875 116.355469 937.664062 124.988281 937.664062 L 562.449219 937.664062 C 571.078125 937.664062 578.070312 930.671875 578.070312 922.039062 L 578.070312 859.546875 C 578.070312 852.816406 573.769531 846.84375 567.386719 844.714844 L 458.832031 808.535156 C 446.074219 804.285156 437.460938 792.347656 437.460938 778.894531 L 437.460938 109.613281 L 525.921875 109.613281 C 548.570312 109.613281 567.992188 125.8125 572.035156 148.097656 L 593.914062 268.652344 C 595.273438 276.085938 601.757812 281.484375 609.320312 281.476562 L 671.816406 281.476562 C 680.445312 281.476562 687.4375 274.484375 687.4375 265.851562 L 687.4375 15.875 C 687.4375 7.242188 680.445312 0.25 671.816406 0.25 L 15.625 0.25 C 6.992188 0.25 0 7.242188 0 15.875 L 0 265.851562 C 0 274.484375 6.992188 281.476562 15.625 281.476562 Z M 31.246094 31.5 L 656.191406 31.5 L 656.191406 250.230469 L 622.367188 250.230469 L 602.777344 142.503906 C 596.015625 105.367188 563.671875 78.371094 525.921875 78.371094 L 421.835938 78.371094 C 413.207031 78.371094 406.214844 85.363281 406.214844 93.988281 L 406.214844 778.894531 C 406.21875 805.789062 423.433594 829.667969 448.941406 838.167969 L 546.824219 870.816406 L 546.824219 906.421875 L 140.609375 906.421875 L 140.609375 870.816406 L 238.496094 838.167969 C 264.007812 829.667969 281.21875 805.789062 281.226562 778.894531 L 281.226562 93.988281 C 281.226562 85.363281 274.226562 78.371094 265.601562 78.371094 L 161.511719 78.371094 C 123.757812 78.371094 91.414062 105.371094 84.65625 142.515625 L 65.066406 250.230469 L 31.246094 250.230469 Z M 31.246094 31.5 " style=" stroke:none;fill-rule:nonzero;fill:rgb(0%,0%,0%);fill-opacity:1;" />
<path d="M 734.3125 718.933594 C 728.875 718.90625 723.824219 721.695312 720.957031 726.304688 C 718.085938 730.921875 717.828125 736.6875 720.25 741.542969 L 813.988281 929.023438 C 816.628906 934.335938 822.046875 937.675781 827.976562 937.675781 C 833.894531 937.675781 839.3125 934.335938 841.957031 929.023438 L 935.703125 741.542969 C 938.109375 736.707031 937.855469 730.972656 935.027344 726.375 C 932.195312 721.773438 927.191406 718.960938 921.792969 718.933594 L 874.921875 718.933594 L 874.921875 218.980469 L 921.792969 218.980469 C 927.226562 219.007812 932.273438 216.214844 935.144531 211.605469 C 938.011719 206.992188 938.277344 201.226562 935.855469 196.378906 L 842.113281 8.890625 C 839.167969 3.964844 833.863281 0.949219 828.125 0.949219 C 822.398438 0.949219 817.078125 3.964844 814.140625 8.890625 L 720.398438 196.378906 C 717.988281 201.203125 718.246094 206.9375 721.074219 211.539062 C 723.90625 216.144531 728.90625 218.957031 734.3125 218.980469 L 781.179688 218.980469 L 781.179688 718.933594 Z M 796.800781 187.734375 L 759.589844 187.734375 L 828.050781 50.804688 L 896.511719 187.734375 L 859.296875 187.734375 C 850.667969 187.734375 843.675781 194.726562 843.675781 203.355469 L 843.675781 734.558594 C 843.675781 743.1875 850.667969 750.179688 859.296875 750.179688 L 896.511719 750.179688 L 828.050781 887.109375 L 759.589844 750.179688 L 796.800781 750.179688 C 805.433594 750.179688 812.425781 743.1875 812.425781 734.558594 L 812.425781 203.355469 C 812.425781 194.726562 805.433594 187.734375 796.800781 187.734375 Z M 796.800781 187.734375 " style=" stroke:none;fill-rule:nonzero;fill:rgb(0%,0%,0%);fill-opacity:1;" />
</g>
</svg>