<svg xmlns="http://www.w3.org/2000/svg" height="937.5pt" version="1.1" viewBox="0 0 937.5 937.5" width="937.5pt">
<g id="surface1">
<path d="M 875 140.625 L 843.75 140.625 L 843.75 171.875 L 875 171.875 C 892.261719 171.875 906.25 185.863281 906.25 203.125 L 906.25 656.25 L 31.25 656.25 L 31.25 203.125 C 31.25 185.863281 45.238281 171.875 62.5 171.875 L 78.125 171.875 L 78.125 140.625 L 62.5 140.625 C 27.984375 140.625 0 168.609375 0 203.125 L 0 718.75 C 0 753.265625 27.984375 781.25 62.5 781.25 L 369.625 781.25 L 332.125 906.25 L 296.875 906.25 L 296.875 937.5 L 640.625 937.5 L 640.625 906.25 L 605.375 906.25 L 567.875 781.25 L 875 781.25 C 909.515625 781.25 937.5 753.265625 937.5 718.75 L 937.5 203.125 C 937.5 168.609375 909.515625 140.625 875 140.625 Z M 572.75 906.25 L 364.75 906.25 L 402.25 781.25 L 535.25 781.25 Z M 906.25 718.75 C 906.25 736.011719 892.261719 750 875 750 L 62.5 750 C 45.238281 750 31.25 736.011719 31.25 718.75 L 31.25 687.5 L 906.25 687.5 Z M 906.25 718.75 " style=" stroke:none;fill-rule:nonzero;fill:rgb(0%,0%,0%);fill-opacity:1;" />
<path d="M 125 562.5 C 116.367188 562.5 109.375 569.492188 109.375 578.125 L 109.375 625 L 140.625 625 L 140.625 591.765625 C 168.21875 584.644531 187.5 559.757812 187.5 531.25 C 187.5 502.742188 168.21875 477.855469 140.625 470.734375 L 140.625 404.265625 C 168.21875 397.144531 187.5 372.257812 187.5 343.75 C 187.5 315.242188 168.21875 290.355469 140.625 283.234375 L 140.625 216.765625 C 168.21875 209.644531 187.5 184.757812 187.5 156.25 C 187.5 127.742188 168.21875 102.855469 140.625 95.734375 L 140.625 51.5625 C 140.625 40.34375 149.71875 31.25 160.9375 31.25 L 205.070312 31.25 C 212.539062 59.171875 237.988281 78.460938 266.894531 78.125 C 295.136719 78.085938 319.679688 58.714844 326.265625 31.25 L 408.261719 31.25 C 415.746094 59.171875 441.210938 78.460938 470.109375 78.125 C 498.378906 78.164062 522.960938 58.75 529.488281 31.25 L 611.335938 31.25 C 618.46875 58.84375 643.359375 78.125 671.867188 78.125 C 700.367188 78.125 725.25 58.84375 732.375 31.25 L 776.5625 31.25 C 787.753906 31.304688 796.820312 40.371094 796.875 51.5625 L 796.875 95.734375 C 769.28125 102.855469 750 127.742188 750 156.25 C 750 184.757812 769.28125 209.644531 796.875 216.765625 L 796.875 283.234375 C 769.28125 290.355469 750 315.242188 750 343.75 C 750 372.257812 769.28125 397.144531 796.875 404.265625 L 796.875 470.734375 C 769.28125 477.855469 750 502.742188 750 531.25 C 750 559.757812 769.28125 584.644531 796.875 591.765625 L 796.875 625 L 828.125 625 L 828.125 578.125 C 828.125 569.492188 821.132812 562.5 812.5 562.5 C 795.238281 562.5 781.25 548.511719 781.25 531.25 C 781.25 513.988281 795.238281 500 812.5 500 C 821.132812 500 828.125 493.007812 828.125 484.375 L 828.125 390.625 C 828.125 381.992188 821.132812 375 812.5 375 C 795.238281 375 781.25 361.011719 781.25 343.75 C 781.25 326.488281 795.238281 312.5 812.5 312.5 C 821.132812 312.5 828.125 305.507812 828.125 296.875 L 828.125 203.125 C 828.125 194.492188 821.132812 187.5 812.5 187.5 C 795.238281 187.5 781.25 173.511719 781.25 156.25 C 781.25 138.988281 795.238281 125 812.5 125 C 821.132812 125 828.125 118.007812 828.125 109.375 L 828.125 51.5625 C 828.054688 23.121094 805.003906 0.0703125 776.5625 0 L 718.75 0 C 710.117188 0 703.125 6.992188 703.125 15.625 C 703.125 32.886719 689.136719 46.875 671.875 46.875 C 654.613281 46.875 640.625 32.886719 640.625 15.625 C 640.625 6.992188 633.632812 0 625 0 L 515.625 0 C 511.40625 0.214844 507.429688 2.070312 504.566406 5.175781 C 501.609375 8.328125 499.992188 12.503906 500 16.835938 C 500.058594 24.796875 496.914062 32.460938 491.265625 38.082031 C 485.328125 43.949219 477.242188 47.128906 468.886719 46.875 C 451.601562 46.882812 437.558594 32.910156 437.5 15.625 C 437.5 6.992188 430.507812 0 421.875 0 L 312.5 0 C 303.625 0.605469 296.765625 8.03125 296.875 16.917969 C 296.800781 25.039062 293.460938 32.789062 287.609375 38.421875 C 281.765625 44.0625 273.898438 47.109375 265.777344 46.875 C 248.484375 46.898438 234.433594 32.921875 234.375 15.625 C 234.375 6.992188 227.382812 0 218.75 0 L 160.9375 0 C 132.480469 0.0585938 109.433594 23.105469 109.375 51.5625 L 109.375 109.375 C 109.375 118.007812 116.367188 125 125 125 C 142.261719 125 156.25 138.988281 156.25 156.25 C 156.25 173.511719 142.261719 187.5 125 187.5 C 116.367188 187.5 109.375 194.492188 109.375 203.125 L 109.375 296.875 C 109.375 305.507812 116.367188 312.5 125 312.5 C 142.261719 312.5 156.25 326.488281 156.25 343.75 C 156.25 361.011719 142.261719 375 125 375 C 116.367188 375 109.375 381.992188 109.375 390.625 L 109.375 484.375 C 109.375 493.007812 116.367188 500 125 500 C 142.261719 500 156.25 513.988281 156.25 531.25 C 156.25 548.511719 142.261719 562.5 125 562.5 Z M 125 562.5 " style=" stroke:none;fill-rule:nonzero;fill:rgb(0%,0%,0%);fill-opacity:1;" />
<path d="M 718.75 625 L 718.75 125 C 718.75 116.367188 711.757812 109.375 703.125 109.375 L 234.375 109.375 C 225.742188 109.375 218.75 116.367188 218.75 125 L 218.75 625 L 250 625 L 250 140.625 L 687.5 140.625 L 687.5 625 Z M 718.75 625 " style=" stroke:none;fill-rule:nonzero;fill:rgb(0%,0%,0%);fill-opacity:1;" />
<path d="M 296.875 468.75 L 296.875 546.875 C 296.929688 590 331.875 624.945312 375 625 L 562.5 625 C 605.625 624.945312 640.570312 590 640.625 546.875 L 640.625 468.75 C 640.617188 437.695312 622.207031 409.609375 593.75 397.1875 L 593.75 289.0625 C 593.679688 224.371094 541.253906 171.945312 476.5625 171.875 C 420.503906 171.945312 375.070312 217.378906 375 273.4375 L 375 343.75 C 375.058594 360.710938 380.6875 377.1875 391.023438 390.625 L 375 390.625 C 331.875 390.679688 296.929688 425.625 296.875 468.75 Z M 375 593.75 C 349.117188 593.75 328.125 572.757812 328.125 546.875 L 328.125 468.75 C 328.148438 448.886719 340.664062 431.191406 359.375 424.550781 L 359.375 546.875 C 359.375 555.507812 366.367188 562.5 375 562.5 L 437.5 562.5 C 457.363281 562.523438 475.058594 575.039062 481.699219 593.75 Z M 578.125 546.875 L 578.125 468.265625 C 585.828125 457.898438 590.820312 445.773438 592.625 432.984375 C 603.21875 441.84375 609.351562 454.941406 609.375 468.75 L 609.375 546.875 C 609.375 572.757812 588.382812 593.75 562.5 593.75 L 514.0625 593.75 C 511.648438 582.382812 506.714844 571.703125 499.609375 562.5 L 562.5 562.5 C 571.132812 562.5 578.125 555.507812 578.125 546.875 Z M 476.5625 203.125 C 524 203.183594 562.441406 241.625 562.5 289.0625 L 562.5 421.875 C 562.476562 441.738281 549.960938 459.433594 531.25 466.074219 L 531.25 328.125 C 531.25 293.609375 503.265625 265.625 468.75 265.625 L 406.671875 265.625 C 410.699219 230.054688 440.765625 203.171875 476.5625 203.125 Z M 406.25 296.875 L 468.75 296.875 C 486.011719 296.875 500 310.863281 500 328.125 L 500 343.75 C 500 369.632812 479.007812 390.625 453.125 390.625 C 427.242188 390.625 406.25 369.632812 406.25 343.75 Z M 390.625 421.875 L 500 421.875 L 500 468.75 L 390.625 468.75 Z M 390.625 500 L 546.875 500 L 546.875 531.25 L 390.625 531.25 Z M 390.625 500 " style=" stroke:none;fill-rule:nonzero;fill:rgb(0%,0%,0%);fill-opacity:1;" />
</g>
</svg>