<svg xmlns="http://www.w3.org/2000/svg" height="937pt" version="1.1" viewBox="0 -109 937.5 937" width="937pt">
<g id="surface1">
<path d="M 921.875 594 L 890.625 594 L 890.625 78.375 C 890.570312 35.25 855.625 0.304688 812.5 0.25 L 125 0.25 C 81.875 0.304688 46.929688 35.25 46.875 78.375 L 46.875 594 L 15.625 594 C 6.992188 594 0 600.992188 0 609.625 L 0 656.5 C 0 691.015625 27.984375 719 62.5 719 L 875 719 C 909.515625 719 937.5 691.015625 937.5 656.5 L 937.5 609.625 C 937.5 600.992188 930.507812 594 921.875 594 Z M 78.125 78.375 C 78.125 52.492188 99.117188 31.5 125 31.5 L 812.5 31.5 C 838.382812 31.5 859.375 52.492188 859.375 78.375 L 859.375 594 L 828.125 594 L 828.125 109.625 C 828.125 83.742188 807.132812 62.75 781.25 62.75 L 156.25 62.75 C 130.367188 62.75 109.375 83.742188 109.375 109.625 L 109.375 594 L 78.125 594 Z M 796.875 109.625 L 796.875 594 L 564.34375 594 C 547.664062 593.90625 532.402344 603.332031 525 618.265625 C 522.890625 622.5625 518.496094 625.28125 513.703125 625.25 L 423.71875 625.25 C 418.921875 625.28125 414.539062 622.5625 412.421875 618.265625 C 405.03125 603.351562 389.800781 593.941406 373.15625 594 L 140.625 594 L 140.625 109.625 C 140.625 100.992188 147.617188 94 156.25 94 L 781.25 94 C 789.882812 94 796.875 100.992188 796.875 109.625 Z M 906.25 656.5 C 906.25 673.761719 892.261719 687.75 875 687.75 L 62.5 687.75 C 45.238281 687.75 31.25 673.761719 31.25 656.5 L 31.25 625.25 L 373.15625 625.25 C 377.953125 625.21875 382.335938 627.9375 384.453125 632.234375 C 391.84375 647.148438 407.074219 656.558594 423.71875 656.5 L 513.78125 656.5 C 530.460938 656.59375 545.722656 647.167969 553.125 632.234375 C 555.230469 627.960938 559.574219 625.25 564.34375 625.25 L 906.25 625.25 Z M 906.25 656.5 " style=" stroke:none;fill-rule:nonzero;fill:rgb(0%,0%,0%);fill-opacity:1;" />
<path d="M 414.824219 362.847656 C 414.953125 362.847656 415.042969 363.015625 415.164062 363.082031 L 416.015625 363.421875 C 419.578125 365.085938 423.203125 366.546875 426.953125 367.902344 C 427.558594 368.121094 428.167969 368.359375 428.78125 368.5625 C 432.300781 369.761719 435.890625 370.78125 439.546875 371.6875 C 440.375 371.890625 441.1875 372.132812 442.015625 372.324219 C 445.464844 373.078125 448.96875 373.640625 452.53125 374.085938 C 453.484375 374.21875 454.417969 374.445312 455.375 374.527344 C 464.289062 375.53125 473.273438 375.53125 482.183594 374.527344 C 483.144531 374.445312 484.078125 374.21875 485.035156 374.085938 C 488.59375 373.640625 492.09375 373.078125 495.546875 372.324219 C 496.375 372.132812 497.109375 371.890625 498.015625 371.6875 C 501.671875 370.804688 505.265625 369.789062 508.785156 368.5625 C 509.394531 368.359375 510.003906 368.121094 510.617188 367.902344 C 514.332031 366.578125 517.949219 365.085938 521.542969 363.421875 L 522.390625 363.082031 C 522.515625 363.082031 522.609375 362.90625 522.734375 362.847656 C 575.414062 337.664062 603.640625 279.371094 590.734375 222.421875 C 577.828125 165.484375 527.21875 125.0625 468.824219 125.0625 C 410.4375 125.0625 359.835938 165.484375 346.921875 222.421875 C 334.015625 279.371094 362.246094 337.664062 414.921875 362.847656 Z M 500 338.53125 L 499.796875 338.605469 C 495.007812 340.289062 490.109375 341.582031 485.109375 342.46875 C 484.625 342.5625 484.136719 342.628906 483.652344 342.707031 C 473.785156 344.3125 463.714844 344.3125 453.847656 342.707031 C 453.363281 342.628906 452.875 342.5625 452.390625 342.46875 C 447.390625 341.582031 442.492188 340.289062 437.703125 338.605469 L 437.5 338.53125 L 437.5 312.75 C 437.5 295.488281 451.488281 281.5 468.75 281.5 C 486.011719 281.5 500 295.488281 500 312.75 Z M 453.125 234.625 C 453.125 225.992188 460.117188 219 468.75 219 C 477.382812 219 484.375 225.992188 484.375 234.625 C 484.375 243.257812 477.382812 250.25 468.75 250.25 C 460.117188 250.25 453.125 243.257812 453.125 234.625 Z M 468.75 156.5 C 507.597656 156.453125 542.441406 180.398438 556.308594 216.679688 C 570.191406 252.964844 560.214844 294.046875 531.25 319.9375 L 531.25 312.75 C 531.195312 293.042969 521.816406 274.527344 505.953125 262.828125 C 512.195312 254.742188 515.585938 244.828125 515.625 234.625 C 515.625 208.742188 494.632812 187.75 468.75 187.75 C 442.867188 187.75 421.875 208.742188 421.875 234.625 C 421.929688 244.8125 425.320312 254.695312 431.546875 262.75 C 415.664062 274.460938 406.273438 293.015625 406.25 312.75 L 406.25 319.9375 C 377.285156 294.046875 367.308594 252.964844 381.191406 216.679688 C 395.058594 180.398438 429.902344 156.453125 468.75 156.5 Z M 468.75 156.5 " style=" stroke:none;fill-rule:nonzero;fill:rgb(0%,0%,0%);fill-opacity:1;" />
<path d="M 718.75 406.5 L 218.75 406.5 C 210.117188 406.5 203.125 413.492188 203.125 422.125 L 203.125 547.125 C 203.125 555.757812 210.117188 562.75 218.75 562.75 L 718.75 562.75 C 727.382812 562.75 734.375 555.757812 734.375 547.125 L 734.375 422.125 C 734.375 413.492188 727.382812 406.5 718.75 406.5 Z M 703.125 531.5 L 234.375 531.5 L 234.375 437.75 L 703.125 437.75 Z M 703.125 531.5 " style=" stroke:none;fill-rule:nonzero;fill:rgb(0%,0%,0%);fill-opacity:1;" />
<path d="M 265.625 469 L 296.875 469 L 296.875 500.25 L 265.625 500.25 Z M 265.625 469 " style=" stroke:none;fill-rule:nonzero;fill:rgb(0%,0%,0%);fill-opacity:1;" />
<path d="M 328.125 469 L 359.375 469 L 359.375 500.25 L 328.125 500.25 Z M 328.125 469 " style=" stroke:none;fill-rule:nonzero;fill:rgb(0%,0%,0%);fill-opacity:1;" />
<path d="M 390.625 469 L 421.875 469 L 421.875 500.25 L 390.625 500.25 Z M 390.625 469 " style=" stroke:none;fill-rule:nonzero;fill:rgb(0%,0%,0%);fill-opacity:1;" />
<path d="M 453.125 469 L 484.375 469 L 484.375 500.25 L 453.125 500.25 Z M 453.125 469 " style=" stroke:none;fill-rule:nonzero;fill:rgb(0%,0%,0%);fill-opacity:1;" />
<path d="M 171.875 125.25 L 265.625 125.25 L 265.625 156.5 L 171.875 156.5 Z M 171.875 125.25 " style=" stroke:none;fill-rule:nonzero;fill:rgb(0%,0%,0%);fill-opacity:1;" />
<path d="M 296.875 125.25 L 328.125 125.25 L 328.125 156.5 L 296.875 156.5 Z M 296.875 125.25 " style=" stroke:none;fill-rule:nonzero;fill:rgb(0%,0%,0%);fill-opacity:1;" />
</g>
</svg>