<svg xmlns="http://www.w3.org/2000/svg" height="937pt" version="1.1" viewBox="-125 0 937 937.5" width="937pt">
<g id="surface1">
<path d="M 156.5 0 C 113.375 0.0546875 78.429688 35 78.375 78.125 L 78.375 125 L 15.875 125 C 7.242188 125 0.25 131.992188 0.25 140.625 L 0.25 921.875 C 0.25 930.507812 7.242188 937.5 15.875 937.5 L 672.125 937.5 C 680.757812 937.5 687.75 930.507812 687.75 921.875 L 687.75 296.875 C 687.75 296.542969 687.574219 296.25 687.558594 295.921875 C 687.476562 294.539062 687.203125 293.171875 686.75 291.867188 C 686.578125 291.359375 686.457031 290.894531 686.230469 290.40625 C 685.480469 288.703125 684.421875 287.15625 683.109375 285.828125 L 526.859375 129.578125 C 525.53125 128.296875 523.992188 127.257812 522.296875 126.53125 C 521.792969 126.292969 521.3125 126.171875 520.734375 125.980469 C 519.449219 125.546875 518.121094 125.292969 516.765625 125.203125 C 516.421875 125.203125 516.113281 125 515.753906 125 L 234.625 125 L 234.625 78.125 C 234.570312 35 199.625 0.0546875 156.5 0 Z M 109.625 78.125 C 109.625 52.242188 130.617188 31.25 156.5 31.25 C 182.382812 31.25 203.375 52.242188 203.375 78.125 L 203.375 125 L 109.625 125 Z M 531.5 178.34375 L 634.40625 281.25 L 531.5 281.25 Z M 500.25 156.25 L 500.25 296.875 C 500.25 305.507812 507.242188 312.5 515.875 312.5 L 656.5 312.5 L 656.5 906.25 L 31.5 906.25 L 31.5 156.25 L 203.375 156.25 L 203.375 265.625 C 203.375 291.507812 182.382812 312.5 156.5 312.5 C 130.617188 312.5 109.625 291.507812 109.625 265.625 L 109.625 203.125 L 78.375 203.125 L 78.375 265.625 C 78.375 308.769531 113.355469 343.75 156.5 343.75 C 199.644531 343.75 234.625 308.769531 234.625 265.625 L 234.625 156.25 Z M 500.25 156.25 " style=" stroke:none;fill-rule:nonzero;fill:rgb(0%,0%,0%);fill-opacity:1;" />
<path d="M 78.375 390.625 L 78.375 843.75 C 78.375 852.382812 85.367188 859.375 94 859.375 L 594 859.375 C 602.632812 859.375 609.625 852.382812 609.625 843.75 L 609.625 390.625 C 609.625 381.992188 602.632812 375 594 375 L 94 375 C 85.367188 375 78.375 381.992188 78.375 390.625 Z M 109.625 406.25 L 578.375 406.25 L 578.375 696.65625 L 487.859375 606.140625 C 481.753906 600.042969 471.871094 600.042969 465.765625 606.140625 L 391.546875 680.359375 L 277.484375 552.109375 C 274.640625 548.914062 270.605469 547.023438 266.324219 546.875 C 262.023438 546.71875 257.847656 548.378906 254.828125 551.453125 L 109.625 696.65625 Z M 109.625 740.84375 L 265.203125 585.265625 L 379.265625 713.515625 C 382.125 716.726562 386.183594 718.628906 390.484375 718.75 C 394.804688 718.964844 399 717.289062 401.984375 714.171875 L 476.8125 639.28125 L 578.375 740.84375 L 578.375 828.125 L 109.625 828.125 Z M 109.625 740.84375 " style=" stroke:none;fill-rule:nonzero;fill:rgb(0%,0%,0%);fill-opacity:1;" />
<path d="M 390.875 578.125 C 425.390625 578.125 453.375 550.140625 453.375 515.625 C 453.375 481.109375 425.390625 453.125 390.875 453.125 C 356.359375 453.125 328.375 481.109375 328.375 515.625 C 328.375 550.140625 356.359375 578.125 390.875 578.125 Z M 390.875 484.375 C 408.136719 484.375 422.125 498.363281 422.125 515.625 C 422.125 532.886719 408.136719 546.875 390.875 546.875 C 373.613281 546.875 359.625 532.886719 359.625 515.625 C 359.625 498.363281 373.613281 484.375 390.875 484.375 Z M 390.875 484.375 " style=" stroke:none;fill-rule:nonzero;fill:rgb(0%,0%,0%);fill-opacity:1;" />
</g>
</svg>