<svg xmlns="http://www.w3.org/2000/svg" height="937pt" version="1.1" viewBox="-93 0 937 937.5" width="937pt">
<g id="surface1">
<path d="M 687.75 0 L 62.75 0 C 28.234375 0 0.25 27.984375 0.25 62.5 L 0.25 875 C 0.25 909.515625 28.234375 937.5 62.75 937.5 L 687.75 937.5 C 722.265625 937.5 750.25 909.515625 750.25 875 L 750.25 62.5 C 750.25 27.984375 722.265625 0 687.75 0 Z M 719 875 C 719 892.261719 705.011719 906.25 687.75 906.25 L 62.75 906.25 C 45.488281 906.25 31.5 892.261719 31.5 875 L 31.5 62.5 C 31.5 45.238281 45.488281 31.25 62.75 31.25 L 687.75 31.25 C 705.011719 31.25 719 45.238281 719 62.5 Z M 719 875 " style=" stroke:none;fill-rule:nonzero;fill:rgb(0%,0%,0%);fill-opacity:1;" />
<path d="M 672.125 78.125 L 78.375 78.125 C 69.742188 78.125 62.75 85.117188 62.75 93.75 L 62.75 218.75 C 62.75 227.382812 69.742188 234.375 78.375 234.375 L 672.125 234.375 C 680.757812 234.375 687.75 227.382812 687.75 218.75 L 687.75 93.75 C 687.75 85.117188 680.757812 78.125 672.125 78.125 Z M 656.5 203.125 L 94 203.125 L 94 109.375 L 656.5 109.375 Z M 656.5 203.125 " style=" stroke:none;fill-rule:nonzero;fill:rgb(0%,0%,0%);fill-opacity:1;" />
<path d="M 125.25 140.625 L 219 140.625 L 219 171.875 L 125.25 171.875 Z M 125.25 140.625 " style=" stroke:none;fill-rule:nonzero;fill:rgb(0%,0%,0%);fill-opacity:1;" />
<path d="M 250.25 140.625 L 344 140.625 L 344 171.875 L 250.25 171.875 Z M 250.25 140.625 " style=" stroke:none;fill-rule:nonzero;fill:rgb(0%,0%,0%);fill-opacity:1;" />
<path d="M 375.25 140.625 L 469 140.625 L 469 171.875 L 375.25 171.875 Z M 375.25 140.625 " style=" stroke:none;fill-rule:nonzero;fill:rgb(0%,0%,0%);fill-opacity:1;" />
<path d="M 500.25 140.625 L 594 140.625 L 594 171.875 L 500.25 171.875 Z M 500.25 140.625 " style=" stroke:none;fill-rule:nonzero;fill:rgb(0%,0%,0%);fill-opacity:1;" />
<path d="M 672.125 265.625 L 78.375 265.625 C 69.742188 265.625 62.75 272.617188 62.75 281.25 L 62.75 500 C 62.75 508.632812 69.742188 515.625 78.375 515.625 L 672.125 515.625 C 680.757812 515.625 687.75 508.632812 687.75 500 L 687.75 281.25 C 687.75 272.617188 680.757812 265.625 672.125 265.625 Z M 584.515625 296.875 L 375.25 373.96875 L 165.984375 296.875 Z M 94 303.65625 L 330.046875 390.625 L 94 477.59375 Z M 165.984375 484.375 L 375.25 407.28125 L 584.515625 484.375 Z M 656.5 477.59375 L 420.453125 390.625 L 656.5 303.65625 Z M 656.5 477.59375 " style=" stroke:none;fill-rule:nonzero;fill:rgb(0%,0%,0%);fill-opacity:1;" />
<path d="M 234.625 546.875 L 78.375 546.875 C 69.742188 546.875 62.75 553.867188 62.75 562.5 L 62.75 718.75 C 62.75 727.382812 69.742188 734.375 78.375 734.375 L 234.625 734.375 C 243.257812 734.375 250.25 727.382812 250.25 718.75 L 250.25 562.5 C 250.25 553.867188 243.257812 546.875 234.625 546.875 Z M 196.90625 578.125 L 156.5 618.53125 L 116.09375 578.125 Z M 94 600.21875 L 134.40625 640.625 L 94 681.03125 Z M 116.09375 703.125 L 156.5 662.71875 L 196.90625 703.125 Z M 219 681.03125 L 178.59375 640.625 L 219 600.21875 Z M 219 681.03125 " style=" stroke:none;fill-rule:nonzero;fill:rgb(0%,0%,0%);fill-opacity:1;" />
<path d="M 453.375 546.875 L 297.125 546.875 C 288.492188 546.875 281.5 553.867188 281.5 562.5 L 281.5 718.75 C 281.5 727.382812 288.492188 734.375 297.125 734.375 L 453.375 734.375 C 462.007812 734.375 469 727.382812 469 718.75 L 469 562.5 C 469 553.867188 462.007812 546.875 453.375 546.875 Z M 415.65625 578.125 L 375.25 618.53125 L 334.84375 578.125 Z M 312.75 600.21875 L 353.15625 640.625 L 312.75 681.03125 Z M 334.84375 703.125 L 375.25 662.71875 L 415.65625 703.125 Z M 437.75 681.03125 L 397.34375 640.625 L 437.75 600.21875 Z M 437.75 681.03125 " style=" stroke:none;fill-rule:nonzero;fill:rgb(0%,0%,0%);fill-opacity:1;" />
<path d="M 672.125 546.875 L 515.875 546.875 C 507.242188 546.875 500.25 553.867188 500.25 562.5 L 500.25 718.75 C 500.25 727.382812 507.242188 734.375 515.875 734.375 L 672.125 734.375 C 680.757812 734.375 687.75 727.382812 687.75 718.75 L 687.75 562.5 C 687.75 553.867188 680.757812 546.875 672.125 546.875 Z M 634.40625 578.125 L 594 618.53125 L 553.59375 578.125 Z M 531.5 600.21875 L 571.90625 640.625 L 531.5 681.03125 Z M 553.59375 703.125 L 594 662.71875 L 634.40625 703.125 Z M 656.5 681.03125 L 616.09375 640.625 L 656.5 600.21875 Z M 656.5 681.03125 " style=" stroke:none;fill-rule:nonzero;fill:rgb(0%,0%,0%);fill-opacity:1;" />
<path d="M 62.75 765.625 L 250.25 765.625 L 250.25 796.875 L 62.75 796.875 Z M 62.75 765.625 " style=" stroke:none;fill-rule:nonzero;fill:rgb(0%,0%,0%);fill-opacity:1;" />
<path d="M 62.75 828.125 L 250.25 828.125 L 250.25 859.375 L 62.75 859.375 Z M 62.75 828.125 " style=" stroke:none;fill-rule:nonzero;fill:rgb(0%,0%,0%);fill-opacity:1;" />
<path d="M 281.5 765.625 L 469 765.625 L 469 796.875 L 281.5 796.875 Z M 281.5 765.625 " style=" stroke:none;fill-rule:nonzero;fill:rgb(0%,0%,0%);fill-opacity:1;" />
<path d="M 281.5 828.125 L 469 828.125 L 469 859.375 L 281.5 859.375 Z M 281.5 828.125 " style=" stroke:none;fill-rule:nonzero;fill:rgb(0%,0%,0%);fill-opacity:1;" />
<path d="M 500.25 765.625 L 687.75 765.625 L 687.75 796.875 L 500.25 796.875 Z M 500.25 765.625 " style=" stroke:none;fill-rule:nonzero;fill:rgb(0%,0%,0%);fill-opacity:1;" />
<path d="M 500.25 828.125 L 687.75 828.125 L 687.75 859.375 L 500.25 859.375 Z M 500.25 828.125 " style=" stroke:none;fill-rule:nonzero;fill:rgb(0%,0%,0%);fill-opacity:1;" />
</g>
</svg>