<svg xmlns="http://www.w3.org/2000/svg" height="937.5pt" version="1.1" viewBox="0 0 937.5 937.5" width="937.5pt">
<g id="surface1">
<path d="M 62.5 62.5 L 687.5 62.5 L 687.5 93.75 L 62.5 93.75 Z M 62.5 62.5 " style=" stroke:none;fill-rule:nonzero;fill:rgb(0%,0%,0%);fill-opacity:1;" />
<path d="M 62.5 406.25 L 687.5 406.25 L 687.5 437.5 L 62.5 437.5 Z M 62.5 406.25 " style=" stroke:none;fill-rule:nonzero;fill:rgb(0%,0%,0%);fill-opacity:1;" />
<path d="M 671.875 125 L 78.125 125 C 69.492188 125 62.5 131.992188 62.5 140.625 L 62.5 359.375 C 62.5 368.007812 69.492188 375 78.125 375 L 671.875 375 C 680.507812 375 687.5 368.007812 687.5 359.375 L 687.5 140.625 C 687.5 131.992188 680.507812 125 671.875 125 Z M 656.25 343.75 L 93.75 343.75 L 93.75 156.25 L 656.25 156.25 Z M 656.25 343.75 " style=" stroke:none;fill-rule:nonzero;fill:rgb(0%,0%,0%);fill-opacity:1;" />
<path d="M 78.125 625 L 234.375 625 C 243.007812 625 250 618.007812 250 609.375 L 250 484.375 C 250 475.742188 243.007812 468.75 234.375 468.75 L 78.125 468.75 C 69.492188 468.75 62.5 475.742188 62.5 484.375 L 62.5 609.375 C 62.5 618.007812 69.492188 625 78.125 625 Z M 93.75 500 L 218.75 500 L 218.75 593.75 L 93.75 593.75 Z M 93.75 500 " style=" stroke:none;fill-rule:nonzero;fill:rgb(0%,0%,0%);fill-opacity:1;" />
<path d="M 453.125 625 C 461.757812 625 468.75 618.007812 468.75 609.375 L 468.75 484.375 C 468.75 475.742188 461.757812 468.75 453.125 468.75 L 296.875 468.75 C 288.242188 468.75 281.25 475.742188 281.25 484.375 L 281.25 609.375 C 281.25 618.007812 288.242188 625 296.875 625 Z M 312.5 500 L 437.5 500 L 437.5 593.75 L 312.5 593.75 Z M 312.5 500 " style=" stroke:none;fill-rule:nonzero;fill:rgb(0%,0%,0%);fill-opacity:1;" />
<path d="M 671.875 468.75 L 515.625 468.75 C 506.992188 468.75 500 475.742188 500 484.375 L 500 609.375 C 500 618.007812 506.992188 625 515.625 625 L 671.875 625 C 680.507812 625 687.5 618.007812 687.5 609.375 L 687.5 484.375 C 687.5 475.742188 680.507812 468.75 671.875 468.75 Z M 656.25 593.75 L 531.25 593.75 L 531.25 500 L 656.25 500 Z M 656.25 593.75 " style=" stroke:none;fill-rule:nonzero;fill:rgb(0%,0%,0%);fill-opacity:1;" />
<path d="M 62.5 656.25 L 250 656.25 L 250 687.5 L 62.5 687.5 Z M 62.5 656.25 " style=" stroke:none;fill-rule:nonzero;fill:rgb(0%,0%,0%);fill-opacity:1;" />
<path d="M 62.5 718.75 L 250 718.75 L 250 750 L 62.5 750 Z M 62.5 718.75 " style=" stroke:none;fill-rule:nonzero;fill:rgb(0%,0%,0%);fill-opacity:1;" />
<path d="M 62.5 781.25 L 250 781.25 L 250 812.5 L 62.5 812.5 Z M 62.5 781.25 " style=" stroke:none;fill-rule:nonzero;fill:rgb(0%,0%,0%);fill-opacity:1;" />
<path d="M 281.25 656.25 L 468.75 656.25 L 468.75 687.5 L 281.25 687.5 Z M 281.25 656.25 " style=" stroke:none;fill-rule:nonzero;fill:rgb(0%,0%,0%);fill-opacity:1;" />
<path d="M 281.25 718.75 L 468.75 718.75 L 468.75 750 L 281.25 750 Z M 281.25 718.75 " style=" stroke:none;fill-rule:nonzero;fill:rgb(0%,0%,0%);fill-opacity:1;" />
<path d="M 281.25 781.25 L 468.75 781.25 L 468.75 812.5 L 281.25 812.5 Z M 281.25 781.25 " style=" stroke:none;fill-rule:nonzero;fill:rgb(0%,0%,0%);fill-opacity:1;" />
<path d="M 500 656.25 L 687.5 656.25 L 687.5 687.5 L 500 687.5 Z M 500 656.25 " style=" stroke:none;fill-rule:nonzero;fill:rgb(0%,0%,0%);fill-opacity:1;" />
<path d="M 500 718.75 L 687.5 718.75 L 687.5 750 L 500 750 Z M 500 718.75 " style=" stroke:none;fill-rule:nonzero;fill:rgb(0%,0%,0%);fill-opacity:1;" />
<path d="M 500 781.25 L 687.5 781.25 L 687.5 812.5 L 500 812.5 Z M 500 781.25 " style=" stroke:none;fill-rule:nonzero;fill:rgb(0%,0%,0%);fill-opacity:1;" />
<path d="M 906.25 828.125 C 906.25 871.269531 871.269531 906.25 828.125 906.25 C 784.980469 906.25 750 871.269531 750 828.125 L 750 15.625 C 750 6.992188 743.007812 0 734.375 0 L 15.625 0 C 6.992188 0 0 6.992188 0 15.625 L 0 828.125 C 0.0742188 888.496094 49.003906 937.425781 109.375 937.5 L 828.125 937.5 C 888.496094 937.425781 937.425781 888.496094 937.5 828.125 L 937.5 250 L 906.25 250 Z M 109.375 906.25 C 66.25 906.195312 31.304688 871.25 31.25 828.125 L 31.25 31.25 L 718.75 31.25 L 718.75 828.125 C 718.75 831.878906 718.945312 835.625 719.332031 839.359375 C 719.472656 840.796875 719.765625 842.1875 719.96875 843.597656 C 720.304688 845.824219 720.566406 848.078125 721.015625 850.269531 C 721.363281 851.953125 721.867188 853.574219 722.296875 855.230469 C 722.730469 856.882812 723.171875 858.984375 723.75 860.789062 C 724.328125 862.609375 725.007812 864.28125 725.65625 866.015625 C 726.292969 867.75 726.800781 869.292969 727.46875 870.875 C 728.144531 872.453125 729.125 874.339844 729.96875 876.0625 C 730.6875 877.535156 731.347656 879.042969 732.125 880.46875 C 733.0625 882.171875 734.125 883.792969 735.15625 885.4375 C 735.996094 886.792969 736.71875 888.207031 737.671875 889.53125 C 738.765625 891.089844 739.964844 892.652344 741.125 894.21875 C 742.113281 895.503906 743.039062 896.816406 744.046875 898.066406 C 745.0625 899.316406 746.578125 900.855469 747.855469 902.25 C 749.140625 903.636719 750.046875 904.695312 751.210938 905.851562 C 751.359375 906 751.503906 906.175781 751.640625 906.324219 Z M 109.375 906.25 " style=" stroke:none;fill-rule:nonzero;fill:rgb(0%,0%,0%);fill-opacity:1;" />
<path d="M 781.25 125 L 781.25 828.125 C 781.25 854.007812 802.242188 875 828.125 875 C 854.007812 875 875 854.007812 875 828.125 L 875 187.5 L 843.75 187.5 L 843.75 828.125 C 843.75 836.757812 836.757812 843.75 828.125 843.75 C 819.492188 843.75 812.5 836.757812 812.5 828.125 L 812.5 125 Z M 781.25 125 " style=" stroke:none;fill-rule:nonzero;fill:rgb(0%,0%,0%);fill-opacity:1;" />
<path d="M 93.75 843.75 L 687.5 843.75 L 687.5 875 L 93.75 875 Z M 93.75 843.75 " style=" stroke:none;fill-rule:nonzero;fill:rgb(0%,0%,0%);fill-opacity:1;" />
</g>
</svg>