<svg xmlns="http://www.w3.org/2000/svg" height="935pt" version="1.1" viewBox="0 0 935.00109 935" width="935pt">
<g id="surface1">
<path d="M 857.085938 0 L 264.949219 0 C 221.945312 0.0507812 187.089844 34.902344 187.035156 77.910156 L 187.035156 467.480469 L 218.199219 467.480469 L 218.199219 77.910156 C 218.199219 52.09375 239.132812 31.171875 264.949219 31.171875 L 857.085938 31.171875 C 882.910156 31.171875 903.832031 52.09375 903.832031 77.910156 L 903.832031 576.554688 C 903.832031 602.371094 882.910156 623.304688 857.085938 623.304688 L 467.519531 623.304688 L 467.519531 654.476562 L 857.085938 654.476562 C 900.097656 654.417969 934.953125 619.566406 935 576.554688 L 935 77.910156 C 934.953125 34.902344 900.097656 0.0507812 857.085938 0 Z M 857.085938 0 " style=" stroke:none;fill-rule:nonzero;fill:rgb(0%,0%,0%);fill-opacity:1;" />
<path d="M 249.363281 62.335938 L 280.535156 62.335938 L 280.535156 93.496094 L 249.363281 93.496094 Z M 249.363281 62.335938 " style=" stroke:none;fill-rule:nonzero;fill:rgb(0%,0%,0%);fill-opacity:1;" />
<path d="M 311.695312 62.335938 L 342.859375 62.335938 L 342.859375 93.496094 L 311.695312 93.496094 Z M 311.695312 62.335938 " style=" stroke:none;fill-rule:nonzero;fill:rgb(0%,0%,0%);fill-opacity:1;" />
<path d="M 374.023438 62.335938 L 405.195312 62.335938 L 405.195312 93.496094 L 374.023438 93.496094 Z M 374.023438 62.335938 " style=" stroke:none;fill-rule:nonzero;fill:rgb(0%,0%,0%);fill-opacity:1;" />
<path d="M 249.363281 124.660156 L 872.667969 124.660156 L 872.667969 155.832031 L 249.363281 155.832031 Z M 249.363281 124.660156 " style=" stroke:none;fill-rule:nonzero;fill:rgb(0%,0%,0%);fill-opacity:1;" />
<path d="M 249.363281 358.40625 C 249.363281 367.011719 256.339844 373.980469 264.949219 373.980469 L 420.769531 373.980469 C 429.386719 373.980469 436.355469 367.011719 436.355469 358.40625 L 436.355469 202.574219 C 436.355469 193.964844 429.386719 186.996094 420.769531 186.996094 L 264.949219 186.996094 C 256.339844 186.996094 249.363281 193.964844 249.363281 202.574219 Z M 280.535156 218.160156 L 405.195312 218.160156 L 405.195312 342.820312 L 280.535156 342.820312 Z M 280.535156 218.160156 " style=" stroke:none;fill-rule:nonzero;fill:rgb(0%,0%,0%);fill-opacity:1;" />
<path d="M 654.515625 202.574219 C 654.515625 193.964844 647.539062 186.996094 638.929688 186.996094 L 483.105469 186.996094 C 474.5 186.996094 467.519531 193.964844 467.519531 202.574219 L 467.519531 358.40625 C 467.519531 367.011719 474.5 373.980469 483.105469 373.980469 L 638.929688 373.980469 C 647.539062 373.980469 654.515625 367.011719 654.515625 358.40625 Z M 623.34375 342.820312 L 498.683594 342.820312 L 498.683594 218.160156 L 623.34375 218.160156 Z M 623.34375 342.820312 " style=" stroke:none;fill-rule:nonzero;fill:rgb(0%,0%,0%);fill-opacity:1;" />
<path d="M 872.667969 202.574219 C 872.667969 193.964844 865.699219 186.996094 857.085938 186.996094 L 701.257812 186.996094 C 692.652344 186.996094 685.679688 193.964844 685.679688 202.574219 L 685.679688 358.40625 C 685.679688 367.011719 692.652344 373.980469 701.257812 373.980469 L 857.085938 373.980469 C 865.699219 373.980469 872.667969 367.011719 872.667969 358.40625 Z M 841.507812 342.820312 L 716.839844 342.820312 L 716.839844 218.160156 L 841.507812 218.160156 Z M 841.507812 342.820312 " style=" stroke:none;fill-rule:nonzero;fill:rgb(0%,0%,0%);fill-opacity:1;" />
<path d="M 249.363281 467.480469 L 280.535156 467.480469 L 280.535156 436.316406 L 436.355469 436.316406 L 436.355469 420.730469 C 436.355469 412.125 429.386719 405.152344 420.769531 405.152344 L 264.949219 405.152344 C 256.339844 405.152344 249.363281 412.125 249.363281 420.730469 Z M 249.363281 467.480469 " style=" stroke:none;fill-rule:nonzero;fill:rgb(0%,0%,0%);fill-opacity:1;" />
<path d="M 638.929688 405.152344 L 623.34375 405.152344 L 623.34375 560.976562 L 498.683594 560.976562 L 498.683594 592.140625 L 638.929688 592.140625 C 647.539062 592.140625 654.515625 585.160156 654.515625 576.554688 L 654.515625 420.730469 C 654.515625 412.125 647.539062 405.152344 638.929688 405.152344 Z M 638.929688 405.152344 " style=" stroke:none;fill-rule:nonzero;fill:rgb(0%,0%,0%);fill-opacity:1;" />
<path d="M 857.085938 405.152344 L 701.257812 405.152344 C 692.652344 405.152344 685.679688 412.125 685.679688 420.730469 L 685.679688 576.554688 C 685.679688 585.160156 692.652344 592.140625 701.257812 592.140625 L 857.085938 592.140625 C 865.699219 592.140625 872.667969 585.160156 872.667969 576.554688 L 872.667969 420.730469 C 872.667969 412.125 865.699219 405.152344 857.085938 405.152344 Z M 841.507812 560.976562 L 716.839844 560.976562 L 716.839844 436.316406 L 841.507812 436.316406 Z M 841.507812 560.976562 " style=" stroke:none;fill-rule:nonzero;fill:rgb(0%,0%,0%);fill-opacity:1;" />
<path d="M 3.472656 504.46875 C 0.492188 508.148438 -0.648438 512.984375 0.355469 517.605469 L 62.6875 798.09375 C 64.277344 805.242188 70.636719 810.320312 77.953125 810.296875 L 420.769531 810.296875 C 429.386719 810.296875 436.355469 817.273438 436.355469 825.875 C 436.355469 834.480469 429.386719 841.460938 420.769531 841.460938 L 62.375 841.460938 C 36.554688 841.460938 15.625 862.386719 15.625 888.210938 C 15.625 914.027344 36.554688 934.960938 62.375 934.960938 C 88.199219 934.960938 109.125 914.027344 109.125 888.210938 C 109.074219 882.878906 108.101562 877.621094 106.261719 872.625 L 330.144531 872.625 C 328.304688 877.621094 327.328125 882.878906 327.273438 888.210938 C 327.273438 914.027344 348.207031 934.960938 374.023438 934.960938 C 399.855469 934.960938 420.769531 914.027344 420.769531 888.210938 C 420.730469 882.878906 419.753906 877.621094 417.910156 872.625 L 420.769531 872.625 C 446.59375 872.625 467.519531 851.695312 467.519531 825.875 C 467.519531 800.054688 446.59375 779.136719 420.769531 779.136719 L 409.042969 779.136719 L 466.699219 519.460938 L 492.734375 467.480469 L 501.554688 467.480469 C 509.148438 488.945312 531.097656 501.816406 553.539062 497.96875 C 575.976562 494.121094 592.375 474.660156 592.375 451.894531 C 592.375 429.125 575.976562 409.671875 553.539062 405.824219 C 531.097656 401.964844 509.148438 414.847656 501.554688 436.316406 L 483.105469 436.316406 C 477.175781 436.28125 471.734375 439.625 469.082031 444.925781 L 442.3125 498.644531 L 15.625 498.644531 C 10.898438 498.644531 6.433594 500.78125 3.472656 504.46875 Z M 62.375 903.796875 C 53.769531 903.796875 46.789062 896.816406 46.789062 888.210938 C 46.789062 879.605469 53.769531 872.625 62.375 872.625 C 70.984375 872.625 77.953125 879.605469 77.953125 888.210938 C 77.953125 896.816406 70.984375 903.796875 62.375 903.796875 Z M 374.023438 903.796875 C 365.421875 903.796875 358.445312 896.816406 358.445312 888.210938 C 358.445312 879.605469 365.421875 872.625 374.023438 872.625 C 382.640625 872.625 389.609375 879.605469 389.609375 888.210938 C 389.609375 896.816406 382.640625 903.796875 374.023438 903.796875 Z M 545.433594 436.316406 C 554.046875 436.316406 561.019531 443.292969 561.019531 451.894531 C 561.019531 460.5 554.046875 467.480469 545.433594 467.480469 C 536.824219 467.480469 529.855469 460.5 529.855469 451.894531 C 529.855469 443.292969 536.824219 436.316406 545.433594 436.316406 Z M 218.199219 779.136719 L 155.03125 779.136719 L 151.554688 716.800781 L 218.199219 716.800781 Z M 218.199219 685.636719 L 149.832031 685.636719 L 146.363281 623.304688 L 218.199219 623.304688 Z M 357.605469 529.8125 L 432.515625 529.8125 L 418.660156 592.140625 L 354.128906 592.140625 Z M 352.402344 623.304688 L 411.742188 623.304688 L 397.882812 685.636719 L 348.9375 685.636719 Z M 347.214844 716.800781 L 390.972656 716.800781 L 377.148438 779.136719 L 343.746094 779.136719 Z M 249.363281 529.8125 L 326.390625 529.8125 L 322.933594 592.140625 L 249.363281 592.140625 Z M 249.363281 623.304688 L 321.203125 623.304688 L 317.742188 685.636719 L 249.363281 685.636719 Z M 249.363281 716.800781 L 316.011719 716.800781 L 312.539062 779.136719 L 249.363281 779.136719 Z M 218.199219 529.8125 L 218.199219 592.140625 L 144.640625 592.140625 L 141.175781 529.8125 Z M 123.816406 779.136719 L 90.425781 779.136719 L 76.570312 716.800781 L 120.359375 716.800781 Z M 118.632812 685.636719 L 69.683594 685.636719 L 55.828125 623.304688 L 115.167969 623.304688 Z M 109.964844 529.8125 L 113.441406 592.140625 L 48.917969 592.140625 L 35.058594 529.8125 Z M 109.964844 529.8125 " style=" stroke:none;fill-rule:nonzero;fill:rgb(0%,0%,0%);fill-opacity:1;" />
</g>
</svg>