<svg xmlns="http://www.w3.org/2000/svg" width="49.728" height="20" viewBox="0 0 49.728 20">
  <g id="up" transform="translate(0.433 -0.765)" fill="#fff">
    <path d="M 2.615628719329834 20.26482963562012 L 2.574431896209717 20.26479530334473 C 1.436071991920471 20.26479530334473 0.4942119419574738 19.55926513671875 0.1745019406080246 18.46736526489258 C -0.1451780647039413 17.37555503845215 0.2673519253730774 16.27353477478027 1.225481986999512 15.65984535217285 L 23.08199119567871 1.659435272216797 C 23.48530197143555 1.401105284690857 23.95161247253418 1.264555215835571 24.43050193786621 1.264555215835571 C 24.90939140319824 1.264555215835571 25.37570190429688 1.401105284690857 25.77902221679688 1.659445285797119 L 47.63551330566406 15.65983486175537 C 48.59365081787109 16.27353477478027 49.00618362426758 17.37555503845215 48.68650054931641 18.46736526489258 C 48.36679077148438 19.55926513671875 47.42493057250977 20.26479530334473 46.28700256347656 20.26479530334473 L 45.71072006225586 20.26479530334473 L 24.43290138244629 6.634975433349609 L 24.1632022857666 6.462215423583984 L 23.89350128173828 6.634975433349609 L 2.615628719329834 20.26482963562012 Z" stroke="none"/>
    <path d="M 46.28700256347656 19.76479530334473 C 47.21138381958008 19.76479530334473 47.94694137573242 19.21381568908691 48.20664215087891 18.32686614990234 C 48.4663200378418 17.44000434875488 48.14414215087891 16.57939529418945 47.36581039428711 16.08086585998535 L 25.50933265686035 2.080475330352783 C 25.1866626739502 1.8737952709198 24.81361198425293 1.764555215835571 24.43050193786621 1.764555215835571 C 24.04739189147949 1.764555215835571 23.67434120178223 1.8737952709198 23.35169219970703 2.080465316772461 L 1.495161890983582 16.08088493347168 C 0.7168619632720947 16.57939529418945 0.3946819305419922 17.44000434875488 0.6543619632720947 18.32686614990234 C 0.9044404625892639 19.18095588684082 1.595761299133301 19.72350692749023 2.472801446914673 19.76253700256348 L 23.62381172180176 6.213945388793945 L 24.1632022857666 5.868435382843018 L 24.70259284973145 6.213945388793945 L 45.85712814331055 19.76479530334473 L 46.28700256347656 19.76479530334473 M 2.761852025985718 20.76495552062988 L 2.761561870574951 20.76495552062988 L 2.574002027511597 20.76479530334473 C 1.208521962165833 20.76479530334473 0.07830193638801575 19.91814613342285 -0.3053480684757233 18.60786437988281 C -0.6889780759811401 17.29766464233398 -0.1939480602741241 15.97523498535156 0.9558019638061523 15.23880481719971 L 22.81230163574219 1.238405227661133 C 23.2962818145752 0.928405225276947 23.8558521270752 0.7645552754402161 24.43050193786621 0.7645552754402161 C 25.00515174865723 0.7645552754402161 25.56472206115723 0.928405225276947 26.04870223999023 1.238405227661133 L 47.90520095825195 15.23880481719971 C 49.05495071411133 15.97523498535156 49.54998016357422 17.29766464233398 49.16635131835938 18.60786437988281 C 48.7827033996582 19.91814613342285 47.65248107910156 20.76479530334473 46.28700256347656 20.76479530334473 L 45.56430053710938 20.76479530334473 L 24.1632022857666 7.056005477905273 L 2.762101888656616 20.76479530334473 L 2.761852025985718 20.76495552062988 Z" stroke="none" fill="#707070"/>
  </g>
</svg>
