<svg xmlns="http://www.w3.org/2000/svg" width="82" height="82" viewBox="0 0 82 82">
  <g id="browser" transform="translate(1 1)">
    <path id="Path_468" data-name="Path 468" d="M75.517,169.379H4.483A4.483,4.483,0,0,1,0,164.9V105.931H80V164.9A4.483,4.483,0,0,1,75.517,169.379Z" transform="translate(0 -89.379)" fill="#ecf0f1" stroke="#363636" stroke-width="2"/>
    <path id="Path_469" data-name="Path 469" d="M80,16.552H0V4.483A4.483,4.483,0,0,1,4.483,0H75.517A4.483,4.483,0,0,1,80,4.483Z" fill="#687492" stroke="#363636" stroke-width="2"/>
    <rect id="Rectangle_98" data-name="Rectangle 98" width="5.517" height="5.517" transform="translate(5.517 5.517)" fill="#e64c3c"/>
    <rect id="Rectangle_99" data-name="Rectangle 99" width="5.517" height="5.517" transform="translate(16.552 5.517)" fill="#f0c419"/>
    <rect id="Rectangle_100" data-name="Rectangle 100" width="5.517" height="5.517" transform="translate(27.586 5.517)" fill="#24ae5f"/>
    <rect id="Rectangle_101" data-name="Rectangle 101" width="80" height="2.759" transform="translate(0 45.517)" fill="#363636"/>
    <path id="Path_470" data-name="Path 470" d="M37.517,154.482a11.035,11.035,0,1,1,11.035-11.035A11.047,11.047,0,0,1,37.517,154.482Zm0-19.31a8.276,8.276,0,1,0,8.276,8.276A8.285,8.285,0,0,0,37.517,135.172Z" transform="translate(-22.344 -111.723)" fill="#f29c1f"/>
    <path id="Path_471" data-name="Path 471" d="M355.311,154.482a11.035,11.035,0,1,1,11.035-11.035A11.047,11.047,0,0,1,355.311,154.482Zm0-19.31a8.276,8.276,0,1,0,8.276,8.276A8.285,8.285,0,0,0,355.311,135.172Z" transform="translate(-290.483 -111.723)" fill="#d25627"/>
    <path id="Path_472" data-name="Path 472" d="M196.414,154.482a11.035,11.035,0,1,1,11.035-11.035A11.047,11.047,0,0,1,196.414,154.482Zm0-19.31a8.276,8.276,0,1,0,8.276,8.276A8.285,8.285,0,0,0,196.414,135.172Z" transform="translate(-156.414 -111.723)" fill="#e57e25"/>
    <g id="Group_218" data-name="Group 218" transform="translate(8.276 52.414)">
      <rect id="Rectangle_102" data-name="Rectangle 102" width="8.276" height="22.069" fill="#687492"/>
      <rect id="Rectangle_103" data-name="Rectangle 103" width="8.276" height="17.931" transform="translate(13.793 4.138)" fill="#687492"/>
    </g>
    <rect id="Rectangle_104" data-name="Rectangle 104" width="8.276" height="15.172" transform="translate(35.862 59.31)" fill="#24ae5f"/>
    <g id="Group_219" data-name="Group 219" transform="translate(49.655 55.172)">
      <rect id="Rectangle_105" data-name="Rectangle 105" width="8.276" height="11.035" transform="translate(0 8.276)" fill="#687492"/>
      <rect id="Rectangle_106" data-name="Rectangle 106" width="8.276" height="19.31" transform="translate(13.793)" fill="#687492"/>
    </g>
  </g>
</svg>
