<svg id="browser" xmlns="http://www.w3.org/2000/svg" width="76.07" height="76.063" viewBox="0 0 76.07 76.063">
  <g id="Group_55" data-name="Group 55" transform="translate(0.007)">
    <g id="Group_54" data-name="Group 54">
      <path id="Path_80" data-name="Path 80" d="M70.359,0H5.7A5.712,5.712,0,0,0,0,5.7V70.359a5.712,5.712,0,0,0,5.7,5.7H70.359a5.712,5.712,0,0,0,5.7-5.7V5.7A5.712,5.712,0,0,0,70.359,0Zm3.169,70.359a3.173,3.173,0,0,1-3.169,3.169H5.7a3.174,3.174,0,0,1-3.169-3.169V5.7A3.174,3.174,0,0,1,5.7,2.535H70.359A3.174,3.174,0,0,1,73.528,5.7Z" fill="#fff"/>
    </g>
  </g>
  <g id="Group_57" data-name="Group 57" transform="translate(5.078 5.071)">
    <g id="Group_56" data-name="Group 56">
      <path id="Path_81" data-name="Path 81" d="M40.473,34.133H35.4A1.268,1.268,0,0,0,34.134,35.4v5.071A1.268,1.268,0,0,0,35.4,41.739h5.071a1.268,1.268,0,0,0,1.268-1.268V35.4A1.268,1.268,0,0,0,40.473,34.133ZM39.2,39.2H36.669V36.668H39.2Z" transform="translate(-34.134 -34.133)" fill="#42bff5"/>
    </g>
  </g>
  <g id="Group_59" data-name="Group 59" transform="translate(15.219 5.071)">
    <g id="Group_58" data-name="Group 58">
      <path id="Path_82" data-name="Path 82" d="M108.74,34.133h-5.071A1.268,1.268,0,0,0,102.4,35.4v5.071a1.268,1.268,0,0,0,1.268,1.268h5.071a1.268,1.268,0,0,0,1.268-1.268V35.4A1.268,1.268,0,0,0,108.74,34.133ZM107.472,39.2h-2.536V36.668h2.536Z" transform="translate(-102.401 -34.133)" fill="#42bff5"/>
    </g>
  </g>
  <g id="Group_61" data-name="Group 61" transform="translate(25.361 5.071)">
    <g id="Group_60" data-name="Group 60">
      <path id="Path_83" data-name="Path 83" d="M177.006,34.133h-5.071a1.268,1.268,0,0,0-1.268,1.268v5.071a1.268,1.268,0,0,0,1.268,1.268h5.071a1.268,1.268,0,0,0,1.268-1.268V35.4A1.268,1.268,0,0,0,177.006,34.133ZM175.738,39.2H173.2V36.668h2.535Z" transform="translate(-170.667 -34.133)" fill="#42bff5"/>
    </g>
  </g>
  <g id="Group_63" data-name="Group 63" transform="translate(0 14.815)">
    <g id="Group_62" data-name="Group 62" transform="translate(0 0)">
      <rect id="Rectangle_11" data-name="Rectangle 11" width="76" height="2" fill="#fff"/>
    </g>
  </g>
  <g id="Group_65" data-name="Group 65" transform="translate(6.345 21.551)">
    <g id="Group_64" data-name="Group 64">
      <path id="Path_84" data-name="Path 84" d="M59.147,145.067H43.935a1.268,1.268,0,0,0-1.268,1.268v45.638a1.268,1.268,0,0,0,1.268,1.268H59.147a1.268,1.268,0,0,0,1.268-1.268V146.335A1.268,1.268,0,0,0,59.147,145.067ZM57.88,190.705H45.2V147.6H57.88v43.1Z" transform="translate(-42.667 -145.067)" fill="#42bff5"/>
    </g>
  </g>
  <g id="Group_67" data-name="Group 67" transform="translate(51.983 21.551)">
    <g id="Group_66" data-name="Group 66">
      <path id="Path_85" data-name="Path 85" d="M366.347,145.067H351.135a1.268,1.268,0,0,0-1.268,1.268v45.638a1.268,1.268,0,0,0,1.268,1.268h15.213a1.268,1.268,0,0,0,1.268-1.268V146.335A1.268,1.268,0,0,0,366.347,145.067Zm-1.268,45.638H352.4V147.6H365.08Z" transform="translate(-349.867 -145.067)" fill="#42bff5"/>
    </g>
  </g>
  <g id="Group_69" data-name="Group 69" transform="translate(29.164 21.551)">
    <g id="Group_68" data-name="Group 68">
      <path id="Path_86" data-name="Path 86" d="M212.747,145.067H197.535a1.268,1.268,0,0,0-1.268,1.268v45.638a1.268,1.268,0,0,0,1.268,1.268h15.213a1.268,1.268,0,0,0,1.268-1.268V146.335A1.268,1.268,0,0,0,212.747,145.067Zm-1.268,45.638H198.8V147.6H211.48Z" transform="translate(-196.267 -145.067)" fill="#42bff5"/>
    </g>
  </g>
</svg>
