<svg xmlns="http://www.w3.org/2000/svg" xmlns:xlink="http://www.w3.org/1999/xlink" width="120" height="120" viewBox="0 0 120 120"><defs><linearGradient id="a" x1="0.5" x2="0.5" y2="1" gradientUnits="objectBoundingBox"><stop offset="0" stop-color="#17ebab"/><stop offset="1" stop-color="#42bff5"/></linearGradient><clipPath id="b"><rect width="120" height="120" transform="translate(188 1121)" fill="url(#a)"/></clipPath></defs><g transform="translate(-188 -1121)" clip-path="url(#b)"><g transform="translate(188 1121)"><path d="M110,0H10A10.012,10.012,0,0,0,0,10V110a10.012,10.012,0,0,0,10,10H110a10.012,10.012,0,0,0,10-10V10A10.012,10.012,0,0,0,110,0Zm6,110a6,6,0,0,1-6,6H10a6,6,0,0,1-6-6V20H116v90Zm0-94H4V10a6,6,0,0,1,6-6H110a6,6,0,0,1,6,6v6Z" fill="url(#a)"/><path d="M14,8H12a2,2,0,0,0,0,4h2a2,2,0,0,0,0-4Z" fill="url(#a)"/><path d="M22.76,8.16a1.832,1.832,0,0,0-1.52,0,2.31,2.31,0,0,0-.66.42,2.028,2.028,0,0,0,0,2.84,2.31,2.31,0,0,0,.66.42,1.885,1.885,0,0,0,1.52,0,2.31,2.31,0,0,0,.66-.42,2.028,2.028,0,0,0,0-2.84A2.31,2.31,0,0,0,22.76,8.16Z" fill="url(#a)"/><path d="M30.767,8.141a2,2,0,0,0-2.187.439,2.31,2.31,0,0,0-.42.66,1.883,1.883,0,0,0,0,1.52,2.31,2.31,0,0,0,.42.66,2.028,2.028,0,0,0,2.84,0,2.31,2.31,0,0,0,.42-.66A1.679,1.679,0,0,0,32,10,2,2,0,0,0,30.767,8.141Z" fill="url(#a)"/><path d="M108,8H40a2,2,0,1,0,0,4h68a2,2,0,0,0,0-4Z" fill="url(#a)"/><path d="M30.706,95.24a1.835,1.835,0,0,0,.3.222,39.82,39.82,0,0,0,58.028-.018,1.87,1.87,0,0,0,.28-.2,1.952,1.952,0,0,0,.172-.292,39.758,39.758,0,0,0,0-53.9l-.008,0a1.953,1.953,0,0,0-.172-.292,1.792,1.792,0,0,0-.3-.224,39.82,39.82,0,0,0-58,0,1.779,1.779,0,0,0-.3.224,1.952,1.952,0,0,0-.172.292,39.758,39.758,0,0,0,0,53.9A1.929,1.929,0,0,0,30.706,95.24Zm40.2,7.054a36.753,36.753,0,0,0,6.81-12.6v-.006a36.617,36.617,0,0,1,7.066,4.348A36,36,0,0,1,70.91,102.294ZM87.546,91.13a40.56,40.56,0,0,0-8.692-5.33A71.3,71.3,0,0,0,80.948,70H95.9A35.8,35.8,0,0,1,87.546,91.13ZM95.9,66H80.948a71.326,71.326,0,0,0-2.094-15.8,40.565,40.565,0,0,0,8.692-5.326A35.8,35.8,0,0,1,95.9,66ZM84.786,41.958a36.606,36.606,0,0,1-7.066,4.348A36.754,36.754,0,0,0,70.91,33.7,36.006,36.006,0,0,1,84.786,41.958ZM62,32.28c4.9,1.284,9.238,7.178,11.97,15.522A42.466,42.466,0,0,1,62,50.08Zm0,21.8a46.252,46.252,0,0,0,13.072-2.4A67.713,67.713,0,0,1,76.95,66H62ZM62,70H76.95a67.709,67.709,0,0,1-1.878,14.314A46.249,46.249,0,0,0,62,81.918Zm0,15.92A42.469,42.469,0,0,1,73.97,88.2C71.238,96.544,66.9,102.438,62,103.722ZM35.214,94.03a36.617,36.617,0,0,1,7.066-4.336v-.006a36.752,36.752,0,0,0,6.81,12.6A36,36,0,0,1,35.214,94.03ZM58,103.72c-4.9-1.284-9.238-7.178-11.97-15.522A42.466,42.466,0,0,1,58,85.92v17.8Zm0-21.8a46.254,46.254,0,0,0-13.072,2.4A67.715,67.715,0,0,1,43.05,70H58ZM58,66H43.05a67.709,67.709,0,0,1,1.878-14.314A46.249,46.249,0,0,0,58,54.082Zm0-33.722v17.8A42.469,42.469,0,0,1,46.03,47.8C48.762,39.456,53.1,33.562,58,32.278Zm-8.91,1.416a36.752,36.752,0,0,0-6.81,12.612V46.3a36.607,36.607,0,0,1-7.066-4.348A36,36,0,0,1,49.09,33.694ZM32.454,44.87a40.56,40.56,0,0,0,8.692,5.33A71.3,71.3,0,0,0,39.052,66H24.1A35.8,35.8,0,0,1,32.454,44.87ZM39.052,70a71.325,71.325,0,0,0,2.094,15.8,40.564,40.564,0,0,0-8.692,5.326A35.8,35.8,0,0,1,24.1,70h14.95Z" fill="url(#a)"/></g></g></svg>