<svg id="chart" xmlns="http://www.w3.org/2000/svg" width="72.022" height="76.063" viewBox="0 0 72.022 76.063">
  <g id="Group_47" data-name="Group 47" transform="translate(0 21.787)">
    <g id="Group_46" data-name="Group 46">
      <path id="Path_76" data-name="Path 76" d="M84.138,197.959H80.879V150.648a4,4,0,0,0-3.994-3.994H69.6a4,4,0,0,0-3.994,3.994v47.311H57.335V172.083a4,4,0,0,0-3.994-3.994H46.059a4,4,0,0,0-3.994,3.994v25.876H33.791v-13.4a4,4,0,0,0-3.994-3.994H22.514a4,4,0,0,0-3.994,3.994v13.4H15.087a1.486,1.486,0,1,0,0,2.971H84.138a1.486,1.486,0,1,0,0-2.971Zm-53.318,0H21.492v-13.4a1.023,1.023,0,0,1,1.022-1.022H29.8a1.024,1.024,0,0,1,1.022,1.022v13.4Zm23.544,0H45.036V172.083a1.024,1.024,0,0,1,1.022-1.022h7.283a1.024,1.024,0,0,1,1.022,1.022Zm23.544,0H68.58V150.648a1.024,1.024,0,0,1,1.022-1.022h7.283a1.024,1.024,0,0,1,1.022,1.022v47.311Z" transform="translate(-13.601 -146.654)" fill="#fff"/>
    </g>
  </g>
  <g id="Group_49" data-name="Group 49" transform="translate(12.738)">
    <g id="Group_48" data-name="Group 48">
      <path id="Path_77" data-name="Path 77" d="M153.882,1.562A1.48,1.48,0,0,0,152.324,0c-.024,0-.048,0-.072,0h-8.988a1.486,1.486,0,1,0,0,2.971h5.55L134.127,17.658l-5.538-5.538a1.486,1.486,0,0,0-2.1,0L99.781,38.826a1.486,1.486,0,0,0,2.1,2.1l25.656-25.656,5.538,5.538a1.486,1.486,0,0,0,2.1,0L150.915,5.072V10.1a1.486,1.486,0,1,0,2.971,0V1.634C153.886,1.61,153.883,1.586,153.882,1.562Z" transform="translate(-99.346)" fill="#42bff5"/>
    </g>
  </g>
  <g id="Group_51" data-name="Group 51" transform="translate(7.731 43.575)">
    <g id="Group_50" data-name="Group 50">
      <circle id="Ellipse_1" data-name="Ellipse 1" cx="1.486" cy="1.486" r="1.486" fill="#42bff5"/>
    </g>
  </g>
</svg>
