<svg xmlns="http://www.w3.org/2000/svg" xmlns:xlink="http://www.w3.org/1999/xlink" width="120" height="120" viewBox="0 0 120 120"><defs><linearGradient id="a" x1="0.5" x2="0.5" y2="1" gradientUnits="objectBoundingBox"><stop offset="0" stop-color="#17ebab"/><stop offset="1" stop-color="#42bff5"/></linearGradient><clipPath id="b"><rect width="120" height="120" transform="translate(188 1121)" fill="url(#a)"/></clipPath></defs><g transform="translate(-188 -1121)" clip-path="url(#b)"><g transform="translate(188 1121)"><path d="M106.18,84.685a1.761,1.761,0,0,0-1.92.382L85.012,104.315a1.761,1.761,0,0,0,1.246,3.007h19.248a1.761,1.761,0,0,0,1.761-1.761V86.312A1.762,1.762,0,0,0,106.18,84.685ZM90.509,103.8l13.235-13.235V103.8Z" fill="url(#a)"/><path d="M118.913,56.453a1.761,1.761,0,0,0-1.92.382l-5.275,5.275V26.243a1.761,1.761,0,0,0-1.761-1.761H96.424l4.912-4.912,0,0,4.733-4.733a5.371,5.371,0,0,0,0-7.6L100.6,1.765a5.371,5.371,0,0,0-7.6,0L88.267,6.5l-5.723,5.723L70.286,24.482H15.614V7.057A1.761,1.761,0,0,0,13.853,5.3,13.869,13.869,0,0,0,0,19.149V93.958a1.765,1.765,0,0,0,.042.379,13.341,13.341,0,0,0,13.3,12.327H67.164L57.027,116.8a1.761,1.761,0,0,0,1.245,3.007h59.966A1.761,1.761,0,0,0,120,118.046V58.08A1.762,1.762,0,0,0,118.913,56.453ZM95.494,4.256a1.85,1.85,0,0,1,2.613,0l5.474,5.474a1.85,1.85,0,0,1,0,2.613l-3.49,3.49L92,7.746Zm-5.981,5.981L97.6,18.324l-3.232,3.232-8.087-8.087Zm26.965,67.634h-3.25a1.761,1.761,0,0,0,0,3.523h3.25V86.7h-3.25a1.761,1.761,0,0,0,0,3.523h3.25v5.307h-3.25a1.761,1.761,0,0,0,0,3.523h3.25v5.308h-3.25a1.761,1.761,0,0,0,0,3.523h3.25v8.4H62.525L80.316,98.495A1.761,1.761,0,0,0,77.824,96l-7.138,7.138H13.343a9.764,9.764,0,0,1-9.811-9.5q.015-.5.078-.995v-.006q.03-.234.07-.465l.009-.053q.037-.206.082-.411c.008-.038.017-.076.026-.114q.04-.173.086-.344c.017-.062.034-.123.053-.185.026-.09.053-.179.081-.267s.059-.176.089-.263c.021-.061.042-.122.065-.183.043-.115.088-.229.135-.343.013-.033.026-.066.04-.1.06-.141.123-.28.189-.417l.008-.018a10.369,10.369,0,0,1,7.207-5.636l.027-.006c.146-.03.293-.055.441-.079l.074-.013c.134-.02.269-.036.4-.052l.114-.014c.131-.013.262-.022.394-.03l.125-.009q.259-.013.521-.013a1.761,1.761,0,0,0,1.761-1.761V69.1a1.761,1.761,0,1,0-3.523,0v11.12A13.757,13.757,0,0,0,4.18,84.044c-.229.224-.446.456-.657.692V19.149a10.348,10.348,0,0,1,8.569-10.18V62.05h0a1.761,1.761,0,1,0,3.523,0h0V28h51.15l-9.737,9.737a1.761,1.761,0,1,0,2.491,2.491L72.261,27.489h0L83.79,15.96l8.087,8.087L90.928,25l0,0L55.411,60.513l-8.087-8.087,7-7a1.761,1.761,0,0,0-2.491-2.491L43.588,51.18a1.768,1.768,0,0,0-.124.139c-.013.016-.024.033-.037.05-.025.033-.049.066-.072.1s-.025.041-.037.062-.038.066-.055.1-.021.044-.032.067-.03.07-.044.1c0,.012-.011.024-.015.037L39.742,61.56,37.4,68.188a1.781,1.781,0,0,0-.07.268H31.475a1.761,1.761,0,0,0,0,3.523H80.251a1.761,1.761,0,0,0,0-3.523h-35L56,64.665l.026-.011c.042-.015.083-.033.123-.051l.048-.022c.042-.021.084-.044.124-.069l.04-.023c.042-.027.084-.057.124-.088l.03-.022a1.769,1.769,0,0,0,.142-.127L92.9,28H108.2V65.633L83,90.827a1.761,1.761,0,0,0,0,2.491,1.8,1.8,0,0,0,.134.121,1.76,1.76,0,0,0,2.357-.121h0l30.985-30.986ZM52.19,62.273l-5.045,1.781-3.361-3.361,1.781-5.045Z" fill="url(#a)"/></g></g></svg>