<svg id="Layer_1" enable-background="new 0 0 56.689 56.689" height="512" viewBox="0 0 56.689 56.689" width="512" xmlns="http://www.w3.org/2000/svg"><g><path style="fill:#ffffff;" d="m31.402 48.227 10.836-10.828c.85-.85 1.318-1.979 1.318-3.182 0-1.201-.468-2.332-1.318-3.182s-1.979-1.318-3.182-1.318-2.332.469-3.182 1.318l-3.027 3.027v-22.469c0-2.482-2.019-4.5-4.5-4.5-2.482 0-4.5 2.018-4.5 4.5v22.467l-3.027-3.025c-.85-.85-1.979-1.318-3.182-1.318-1.201 0-2.332.469-3.182 1.318-.85.848-1.318 1.979-1.318 3.182-.002 1.2.467 2.331 1.317 3.181l10.707 10.709c.212.214 1.362 1.331 3.182 1.33 1.71.001 2.818-.985 3.058-1.21zm-4.826-1.535-10.707-10.708c-.945-.946-.943-2.592 0-3.536.473-.473 1.1-.732 1.768-.732s1.297.26 1.768.732l6.441 6.441v-27.296c0-1.379 1.121-2.5 2.5-2.5s2.5 1.121 2.5 2.5v27.297l6.441-6.441c.473-.473 1.1-.732 1.768-.732s1.295.26 1.768.732c.946.945.944 2.59 0 3.535l-10.651 10.65c-.158.157-.713.669-1.588.75-1.119.104-1.884-.578-2.008-.692z" fill-rule="evenodd"/></g></svg>
