<svg xmlns="http://www.w3.org/2000/svg" xmlns:xlink="http://www.w3.org/1999/xlink" width="120" height="120" viewBox="0 0 120 120"><defs><linearGradient id="a" x1="0.5" x2="0.5" y2="1" gradientUnits="objectBoundingBox"><stop offset="0" stop-color="#17ebab"/><stop offset="1" stop-color="#42bff5"/></linearGradient><clipPath id="b"><rect width="120" height="120" transform="translate(188 1121)" fill="url(#a)"/></clipPath></defs><g transform="translate(-188 -1121)" clip-path="url(#b)"><g transform="translate(188 1121)"><path d="M60.024,81.2A6.116,6.116,0,0,0,55.2,80.061a6.128,6.128,0,0,0-6.885-5.067,6.2,6.2,0,0,0-1.168.278,6.123,6.123,0,0,0-8.222-3.941,6.133,6.133,0,0,0-10.095-2.447l-6.434-.428,3.944-32.035,7.066.48c.04,0,.08,0,.12,0a1.758,1.758,0,0,0,1.564-.956l2.648-5.167a3.127,3.127,0,0,1,3.6-1.581l3.933,1.087a1.758,1.758,0,0,0,.937-3.389l-3.932-1.087a6.656,6.656,0,0,0-7.668,3.365l-2.12,4.137-5.719-.389.135-1.1a6.435,6.435,0,0,0-5.594-7.165L7.765,23a1.758,1.758,0,1,0-.43,3.489l13.544,1.667A2.912,2.912,0,0,1,23.413,31.4L18.763,69.179a2.917,2.917,0,0,1-3.246,2.535L1.972,70.046a1.758,1.758,0,0,0-.43,3.489L15.087,75.2A6.421,6.421,0,0,0,21.5,71.921l4.813.32a6.132,6.132,0,0,0,5.44,8.935,6.252,6.252,0,0,0,.851-.059l.054-.009c0,.018,0,.036.006.055a6.126,6.126,0,0,0,6.066,5.29,6.185,6.185,0,0,0,.9-.069,6.118,6.118,0,0,0,6.07,5.349,6.179,6.179,0,0,0,.9-.068c0,.019,0,.039.007.059a6.134,6.134,0,0,0,6.061,5.293,6.246,6.246,0,0,0,.851-.059,6.091,6.091,0,0,0,4.049-2.372l3.636-4.8A6.137,6.137,0,0,0,60.024,81.2Zm-27.9-3.562a2.615,2.615,0,0,1-2.442-4.17L31.023,71.7a2.615,2.615,0,0,1,4.17,3.158l-1.339,1.768A2.6,2.6,0,0,1,32.126,77.635Zm5.036,4.774a2.615,2.615,0,0,1-.506-3.664L38,76.978h0l1.182-1.561a2.615,2.615,0,0,1,4.17,3.158L40.826,81.9A2.618,2.618,0,0,1,37.162,82.41Zm6.973,5.28a2.615,2.615,0,0,1-.506-3.663h0L46.15,80.7h0l.915-1.208a2.615,2.615,0,0,1,4.171,3.157L47.8,87.184h0A2.618,2.618,0,0,1,44.135,87.69Zm14.272-.027-3.636,4.8a2.615,2.615,0,1,1-4.17-3.158l3.437-4.538,0,0,.2-.261a2.615,2.615,0,1,1,4.17,3.158Z" fill="url(#a)"/><path d="M119.986,71.576a1.758,1.758,0,0,0-1.959-1.53l-13.544,1.667a2.914,2.914,0,0,1-3.246-2.535l-.139-1.128h0l-.032-.261L96.587,31.4a2.912,2.912,0,0,1,2.534-3.246l13.544-1.667a1.758,1.758,0,0,0-.43-3.489L98.691,24.663a6.436,6.436,0,0,0-5.64,6.546l-3.416.42L79.06,25.677a8.394,8.394,0,0,0-4.91-1.049h-.011l-3.184.294a1.758,1.758,0,0,0,.324,3.5l3.192-.3a4.893,4.893,0,0,1,2.863.611L88.3,34.911a1.758,1.758,0,0,0,1.183.278l3.967-.488,2.91,23.635,1.006,8.174-6.327.005a1.757,1.757,0,0,0-1.148.428l-.49.381L73.516,53.633c3.63-1.044,7.091-3.568,10.326-7.541a1.758,1.758,0,1,0-2.726-2.22C77.5,48.313,73.7,50.6,69.815,50.666c-5.657.106-9.814-4.584-9.852-4.628a1.758,1.758,0,0,0-2.724.078l-4.722,6.145a9.147,9.147,0,0,1-10.547,3l-.5-.191a1.174,1.174,0,0,1-.6-1.688L53.19,32.171a4.923,4.923,0,0,1,3.8-2.425l7.3-.675a1.758,1.758,0,0,0-.324-3.5l-7.3.675a8.446,8.446,0,0,0-6.513,4.159L37.825,51.618a4.689,4.689,0,0,0,2.4,6.743l.5.191a12.806,12.806,0,0,0,4.531.833A12.643,12.643,0,0,0,55.3,54.4l3.523-4.585a17.36,17.36,0,0,0,9.906,4.333L91.688,73.936a2.04,2.04,0,0,1,.214,2.876l-.895,1.038a3.128,3.128,0,0,1-4.4.323,1.757,1.757,0,0,0-.23-.165l-5.959-5.138a1.758,1.758,0,1,0-2.3,2.663l4.843,4.176L80.753,82.27a3.114,3.114,0,0,1-4.4.326l-.026-.02L70.789,77.8a1.758,1.758,0,1,0-2.3,2.663l4.231,3.648L70.5,86.693a3.126,3.126,0,0,1-2.734,1.064,1.758,1.758,0,1,0-.41,3.491,6.639,6.639,0,0,0,5.808-2.261l2.376-2.759a6.633,6.633,0,0,0,7.875-1.663L85.8,81.8a6.653,6.653,0,0,0,7.874-1.658l.9-1.039a5.555,5.555,0,0,0-.582-7.834l-1.443-1.243,5.274,0a6.422,6.422,0,0,0,7.1,5.178l13.544-1.667A1.758,1.758,0,0,0,119.986,71.576Z" fill="url(#a)"/><path d="M108.75,58.886a5.156,5.156,0,1,0,5.156,5.156A5.162,5.162,0,0,0,108.75,58.886Zm0,6.8a1.64,1.64,0,1,1,1.64-1.64A1.642,1.642,0,0,1,108.75,65.682Z" fill="url(#a)"/><path d="M16.216,64.042A5.156,5.156,0,1,0,11.06,69.2,5.162,5.162,0,0,0,16.216,64.042Zm-6.8,0a1.64,1.64,0,1,1,1.64,1.64A1.642,1.642,0,0,1,9.42,64.042Z" fill="url(#a)"/></g></g></svg>