<svg xmlns="http://www.w3.org/2000/svg" width="40.175" height="76.063" viewBox="0 0 40.175 76.063">
  <g id="lightning" transform="translate(0 0)">
    <g id="Group_53" data-name="Group 53" transform="translate(0 0)">
      <g id="Group_52" data-name="Group 52">
        <path id="Path_78" data-name="Path 78" d="M148.17,51.432a1.282,1.282,0,0,0-1.8.175l-15.8,19.181,7.138-18.838a1.282,1.282,0,0,0-1.2-1.736h-7.665l8.845-16.864a1.282,1.282,0,0,0-1.135-1.877h-12.8L138.6,2.564h9.512a1.282,1.282,0,1,0,0-2.564h-9.9A1.928,1.928,0,0,0,136.5,1.051L121,31.214a1.936,1.936,0,0,0,1.723,2.821h11.712L126.091,49.94a1.936,1.936,0,0,0,1.714,2.836h6.847L126.83,73.421a1.936,1.936,0,0,0,3.295,1.939l18.22-22.124A1.282,1.282,0,0,0,148.17,51.432Z" transform="translate(-120.787 0)" fill="#e4eb17"/>
        <path id="Path_79" data-name="Path 79" d="M299.9,17.727a1.936,1.936,0,0,0-1.7-1.006h-8.087l8.054-13.81A1.936,1.936,0,0,0,296.493,0h-4.88a1.282,1.282,0,0,0,0,2.564H295.4l-8.628,14.793a1.282,1.282,0,0,0,1.108,1.928h9.173L284.445,39.03A1.282,1.282,0,0,0,285.525,41h8.747l-6.149,7.466A1.282,1.282,0,0,0,290.1,50.1l6.989-8.486a1.936,1.936,0,0,0-1.489-3.174h-7.738L299.831,19.7A1.937,1.937,0,0,0,299.9,17.727Z" transform="translate(-259.96 0)" fill="#e4eb17"/>
      </g>
    </g>
  </g>
</svg>
