<?xml version="1.0" encoding="UTF-8" standalone="no"?>
<!DOCTYPE svg PUBLIC "-//W3C//DTD SVG 1.1//EN" "http://www.w3.org/Graphics/SVG/1.1/DTD/svg11.dtd">
<svg version="1.1" xmlns="http://www.w3.org/2000/svg" xmlns:xlink="http://www.w3.org/1999/xlink" preserveAspectRatio="xMidYMid meet" viewBox="0 0 200 200" width="160" height="160">
	<defs>
		<path
			d="M53.74 110.59C54.01 111.12 54.31 111.63 54.64 112.11C54.94 112.52 55.2 112.94 55.47 113.39C55.68 113.77 56.73 115.7 58.63 119.17L59.94 121.58C60.74 123.24 61.19 124.16 61.28 124.35C61.99 126.05 62.71 127.74 63.48 129.44C63.99 130.63 64.53 131.8 65.09 132.96C65.12 132.99 65.15 133.05 65.15 133.08C66.19 134.51 67.65 135.58 69.35 136.08C70.48 136.38 71.64 136.56 72.81 136.59C78.29 136.59 122.18 136.56 127.67 136.56C129.9 136.62 132.11 135.79 133.72 134.21C133.92 134.03 134.1 133.79 134.28 133.58C134.34 133.46 134.43 133.37 134.49 133.25C135.32 131.8 136.1 130.28 136.75 128.73C139.28 122.65 142.29 116.78 145.78 111.18C146.71 109.83 151.34 103.05 159.69 90.84C159.74 90.75 159.77 90.7 159.78 90.69C165.73 80.15 167.61 67.79 164.99 55.96C160.85 39.76 149.89 26.12 134.94 18.55C131.84 16.94 128.65 15.54 125.38 14.38C121.95 13.22 118.47 12.3 114.92 11.58C91.42 6.61 66.97 13.52 49.51 30.05C40.88 38.21 35.4 49.17 34.15 61C32.86 72.82 35.84 84.71 42.57 94.5C45.08 97.87 47.55 101.3 49.99 104.72C51.09 106.36 52.17 108.03 53.18 109.72C53.36 110.05 53.59 110.35 53.8 110.65C53.79 110.64 53.76 110.6 53.74 110.59Z"
			id="cVw0QV6jV"></path>
		<path
			d="M65.72 155.24C65.12 156.61 65.09 158.16 65.63 159.56C66.16 160.96 67.21 162.09 68.55 162.74C68.87 162.89 69.2 163.01 69.53 163.07C70.3 163.22 71.11 163.34 71.91 163.43C73.06 163.43 78.8 163.46 89.13 163.52L109.5 163.52C121.04 163.53 127.46 163.54 128.74 163.55C129.37 163.52 129.96 163.43 130.59 163.34C131.3 163.22 132.02 163.01 132.67 162.71C133.15 162.47 133.6 162.15 133.98 161.79C135.23 160.72 135.98 159.2 136.04 157.53C136.04 155.3 134.73 153.3 132.7 152.38C131.42 151.81 130.05 151.51 128.65 151.48C126.83 151.45 125.05 151.45 123.23 151.51C118.07 151.52 76.75 151.54 71.58 151.54C71.23 151.54 70.9 151.57 70.57 151.6C70.57 151.6 70.54 151.6 70.48 151.6C67.86 152.73 66.27 153.95 65.72 155.24Z"
			id="b25Ry5m06p"></path>
		<path
			d="M66.82 139.96C66.01 140.67 65.51 141.62 65.33 142.67C65.06 144.13 65.3 145.62 66.01 146.93C66.61 147.91 67.44 148.71 68.46 149.22C68.67 149.34 68.9 149.4 69.14 149.46C70.07 149.67 70.99 149.82 71.91 149.88C72.12 149.88 73.19 149.92 75.1 149.99L88.38 149.96L88.95 149.96C113.32 149.93 126.87 149.91 129.58 149.9C130.05 149.88 130.53 149.85 131 149.82C131.06 149.82 131.12 149.79 131.18 149.79C133.03 149.43 134.58 148.24 135.35 146.54C136.04 145.08 136.1 143.41 135.5 141.92C134.91 140.43 133.74 139.24 132.26 138.62C132.2 138.59 132.14 138.59 132.08 138.56C131.63 138.47 131.18 138.41 130.74 138.38C123.32 138.05 115.9 137.93 108.49 137.99C105.74 138 83.75 138.07 81 138.08C78.05 137.99 75.07 137.99 72.12 138.08C71.64 138.11 71.17 138.14 70.72 138.23C69.29 138.41 67.92 139 66.82 139.96Z"
			id="j1UyKyWMRr"></path>
		<path
			d="M76.8 165.04C75.46 165.24 74.24 165.81 73.16 166.64C71.85 167.78 71.14 169.44 71.2 171.17C71.2 172.54 71.53 173.91 72.15 175.13C72.24 175.28 72.33 175.43 72.45 175.58C73.16 176.41 74.09 177.01 75.1 177.34C76.2 177.69 77.36 177.93 78.49 178.02C79.13 178.02 82.3 178.01 88 177.99L88.03 177.99C109.29 177.97 121.11 177.96 123.47 177.96C123.86 177.96 124.24 177.93 124.6 177.87C124.61 177.87 124.65 177.87 124.66 177.87C125.97 177.66 127.19 177.07 128.18 176.21C129.31 175.04 129.96 173.46 129.93 171.86C129.96 170.49 129.66 169.15 129.07 167.92C128.95 167.69 128.8 167.48 128.62 167.27C127.67 166.29 126.45 165.6 125.14 165.3C124.12 165.07 123.11 164.92 122.07 164.83C121.41 164.83 118.13 164.85 112.21 164.89C91.52 164.9 80.02 164.91 77.72 164.92C77.42 164.92 77.12 164.95 76.83 164.98C76.82 164.98 76.8 164.98 76.77 164.98C76.78 165.01 76.79 165.03 76.8 165.04Z"
			id="aak7bFhtN"></path>
		<path
			d="M109.32 189.61C110.3 189.52 111.32 189.37 112.3 189.16C112.57 189.1 112.84 189.04 113.07 188.95C113.46 188.86 113.82 188.69 114.12 188.45C114.24 188.33 114.38 188.21 114.5 188.09C114.95 187.55 115.31 186.96 115.52 186.27C115.87 185.38 116.05 184.4 116.05 183.44C116.05 183.23 116.05 182.16 116.05 180.23L116.05 179.66C106.6 179.66 101.35 179.66 100.3 179.66C100.21 179.66 100.15 179.66 100.06 179.66C99.01 179.66 93.76 179.66 84.3 179.66L84.3 180.23C84.3 182.16 84.3 183.23 84.3 183.44C84.3 184.43 84.48 185.38 84.84 186.27C85.08 186.93 85.4 187.55 85.85 188.09C85.97 188.21 86.09 188.33 86.24 188.45C86.57 188.69 86.92 188.86 87.28 188.95C87.55 189.04 87.79 189.1 88.06 189.16C89.04 189.37 90.02 189.52 91.03 189.61C94.04 189.88 97.05 190 100.06 190C100.15 190 100.21 190 100.3 190C103.31 190.03 106.31 189.91 109.32 189.61Z"
			id="cnSw2OHFK"></path>
	</defs>
	<g>
		<g>
			<g>
				<use xlink:href="#cVw0QV6jV" opacity="1" fill="#e4eb17" fill-opacity="1"></use>
				<g>
					<use xlink:href="#cVw0QV6jV" opacity="1" fill-opacity="0" stroke="#3a3a3a" stroke-width="1" stroke-opacity="0"></use>
				</g>
			</g>
			<g>
				<use xlink:href="#b25Ry5m06p" opacity="1" fill="#42bff5" fill-opacity="1"></use>
				<g>
					<use xlink:href="#b25Ry5m06p" opacity="1" fill-opacity="0" stroke="#3a3a3a" stroke-width="0.5" stroke-opacity="0"></use>
				</g>
			</g>
			<g>
				<use xlink:href="#j1UyKyWMRr" opacity="1" fill="#42bff5" fill-opacity="1"></use>
				<g>
					<use xlink:href="#j1UyKyWMRr" opacity="1" fill-opacity="0" stroke="#3a3a3a" stroke-width="0.5" stroke-opacity="0"></use>
				</g>
			</g>
			<g>
				<use xlink:href="#aak7bFhtN" opacity="1" fill="#42bff5" fill-opacity="1"></use>
				<g>
					<use xlink:href="#aak7bFhtN" opacity="1" fill-opacity="0" stroke="#3a3a3a" stroke-width="0.5" stroke-opacity="0"></use>
				</g>
			</g>
			<g>
				<use xlink:href="#cnSw2OHFK" opacity="1" fill="#42bff5" fill-opacity="1"></use>
				<g>
					<use xlink:href="#cnSw2OHFK" opacity="1" fill-opacity="0" stroke="#3a3a3a" stroke-width="0.5" stroke-opacity="0"></use>
				</g>
			</g>
		</g>
	</g>
</svg>
