<svg xmlns="http://www.w3.org/2000/svg" xmlns:xlink="http://www.w3.org/1999/xlink" width="120" height="120" viewBox="0 0 120 120"><defs><linearGradient id="a" x1="0.5" x2="0.5" y2="1" gradientUnits="objectBoundingBox"><stop offset="0" stop-color="#17ebab"/><stop offset="1" stop-color="#42bff5"/></linearGradient><clipPath id="b"><rect width="120" height="120" transform="translate(188 1121)" fill="url(#a)"/></clipPath></defs><g transform="translate(-188 -1121)" clip-path="url(#b)"><g transform="translate(188 1123.344)"><path d="M40.624,28.242a8.789,8.789,0,1,0,8.789-8.789A8.8,8.8,0,0,0,40.624,28.242Zm8.789-4.1a4.1,4.1,0,1,1-4.1,4.1A4.106,4.106,0,0,1,49.413,24.141Zm0,0" fill="url(#a)"/><path d="M77.538,51.68a7.031,7.031,0,1,0-7.031-7.031A7.039,7.039,0,0,0,77.538,51.68Zm0-9.375a2.344,2.344,0,1,1-2.344,2.344A2.346,2.346,0,0,1,77.538,42.3Zm0,0" fill="url(#a)"/><path d="M62.123,83.522a2.533,2.533,0,0,0-.215-.406,2.355,2.355,0,0,0-.291-.356,2.182,2.182,0,0,0-.356-.29,2.365,2.365,0,0,0-.4-.216,2.49,2.49,0,0,0-.44-.134,2.33,2.33,0,0,0-.915,0,2.4,2.4,0,0,0-.438.134,2.291,2.291,0,0,0-.406.216,2.182,2.182,0,0,0-.356.29,2.355,2.355,0,0,0-.291.356,2.331,2.331,0,0,0-.215.406,2.165,2.165,0,0,0-.134.439,2.272,2.272,0,0,0,0,.916,2.165,2.165,0,0,0,.134.439,2.306,2.306,0,0,0,.506.759,2.247,2.247,0,0,0,.356.293,2.291,2.291,0,0,0,.406.216,2.323,2.323,0,0,0,.438.133,2.22,2.22,0,0,0,.915,0,2.413,2.413,0,0,0,.44-.133,2.365,2.365,0,0,0,.4-.216,2.247,2.247,0,0,0,.356-.293,2.3,2.3,0,0,0,.291-.354,2.486,2.486,0,0,0,.215-.4,2.292,2.292,0,0,0,0-1.794Zm0,0" fill="url(#a)"/><path d="M27.661,69.021a2.255,2.255,0,0,0,.506.762,2.227,2.227,0,0,0,.356.291,2.358,2.358,0,0,0,.844.349,2.216,2.216,0,0,0,.914,0,2.395,2.395,0,0,0,.844-.349,2.227,2.227,0,0,0,.356-.291,2.263,2.263,0,0,0,.29-.356,2.4,2.4,0,0,0,.216-.406,2.33,2.33,0,0,0,.135-.438,2.363,2.363,0,0,0,0-.916,2.4,2.4,0,0,0-.135-.439,2.3,2.3,0,0,0-.216-.4,2.321,2.321,0,0,0-.646-.649,2.263,2.263,0,0,0-.406-.216,2.355,2.355,0,0,0-.439-.134,2.325,2.325,0,0,0-.914,0,2.416,2.416,0,0,0-.44.134,2.344,2.344,0,0,0-.4.216,2.19,2.19,0,0,0-.356.293,2.281,2.281,0,0,0-.506.759,2.4,2.4,0,0,0-.135.439,2.281,2.281,0,0,0-.045.46,2.27,2.27,0,0,0,.18.894Zm0,0" fill="url(#a)"/><path d="M110.135.117H9.862A9.874,9.874,0,0,0,0,9.979V84.005a9.874,9.874,0,0,0,9.862,9.862H39.176l-2.242,16.641h-5.1a2.344,2.344,0,1,0,0,4.688h56.25a2.344,2.344,0,0,0,0-4.688h-5.1L80.744,93.867h29.391A9.875,9.875,0,0,0,120,84.005V9.979A9.875,9.875,0,0,0,110.135.117ZM51.173,5.534a2.469,2.469,0,0,1,.729,1.76V9.516a2.345,2.345,0,0,0,1.76,2.27A16.7,16.7,0,0,1,58.036,13.6a2.344,2.344,0,0,0,2.856-.358l1.57-1.573a2.5,2.5,0,0,1,3.526,0,2.49,2.49,0,0,1,0,3.521l-1.575,1.573a2.344,2.344,0,0,0-.359,2.856,16.7,16.7,0,0,1,1.815,4.374,2.343,2.343,0,0,0,2.27,1.759h2.222a2.494,2.494,0,0,1,1.97.968,5.834,5.834,0,0,0-.653,2.6q-.423.162-.836.347a5.86,5.86,0,0,0-8.286,8.287q-.185.412-.347.836a5.872,5.872,0,0,0-5.686,4.891A16.876,16.876,0,0,1,53.661,44.7,2.343,2.343,0,0,0,51.9,46.968V49.19a2.489,2.489,0,0,1-4.978,0V46.968a2.345,2.345,0,0,0-1.76-2.27,16.673,16.673,0,0,1-4.374-1.815,2.344,2.344,0,0,0-2.856.359l-1.571,1.573a2.5,2.5,0,0,1-3.516.008l-.008-.008a2.5,2.5,0,0,1,0-3.522l1.576-1.573a2.345,2.345,0,0,0,.358-2.856,16.734,16.734,0,0,1-1.815-4.374,2.343,2.343,0,0,0-2.27-1.759H28.465a2.489,2.489,0,0,1,0-4.979h2.222a2.343,2.343,0,0,0,2.27-1.759,16.735,16.735,0,0,1,1.815-4.374,2.345,2.345,0,0,0-.358-2.856l-1.573-1.57a2.492,2.492,0,0,1,3.522-3.527l1.573,1.575a2.344,2.344,0,0,0,2.856.359,16.7,16.7,0,0,1,4.374-1.815,2.344,2.344,0,0,0,1.76-2.27V7.294a2.489,2.489,0,0,1,4.249-1.76ZM74.608,33.3a2.344,2.344,0,0,0,1.758-2.27V29.414A1.158,1.158,0,0,1,76.7,28.6l0,0,0,0a1.172,1.172,0,0,1,2.008.818v1.615a2.345,2.345,0,0,0,1.758,2.27,11.545,11.545,0,0,1,3.016,1.251,2.345,2.345,0,0,0,2.854-.358l1.143-1.144a1.173,1.173,0,0,1,1.659,1.659L88,35.849a2.344,2.344,0,0,0-.359,2.854,11.592,11.592,0,0,1,1.252,3.016,2.344,2.344,0,0,0,2.27,1.758h1.614a1.17,1.17,0,0,1,.825,2,1.161,1.161,0,0,1-.825.341H91.158a2.344,2.344,0,0,0-2.27,1.758,11.592,11.592,0,0,1-1.252,3.016A2.344,2.344,0,0,0,88,53.448l1.143,1.143a1.173,1.173,0,0,1-1.659,1.659l-1.143-1.143a2.345,2.345,0,0,0-2.854-.359A11.548,11.548,0,0,1,80.468,56a2.343,2.343,0,0,0-1.758,2.269v1.615a1.17,1.17,0,0,1-2,.824,1.157,1.157,0,0,1-.341-.824V58.268A2.344,2.344,0,0,0,74.608,56a11.605,11.605,0,0,1-3.016-1.252,2.342,2.342,0,0,0-2.853.359L67.6,56.25a1.173,1.173,0,0,1-1.66-1.659l1.144-1.143a2.345,2.345,0,0,0,.358-2.854,11.558,11.558,0,0,1-1.251-3.016,2.345,2.345,0,0,0-2.27-1.758H62.3a1.173,1.173,0,0,1-1.159-1.005s0-.005,0-.007,0-.01,0-.015a1.025,1.025,0,0,1-.01-.145A1.177,1.177,0,0,1,62.3,43.477h1.615a2.345,2.345,0,0,0,2.27-1.758A11.559,11.559,0,0,1,67.439,38.7a2.345,2.345,0,0,0-.358-2.854l-1.144-1.143A1.173,1.173,0,0,1,67.6,33.047L68.74,34.19a2.344,2.344,0,0,0,2.853.359A11.572,11.572,0,0,1,74.608,33.3ZM9.862,4.8h32.82a7.147,7.147,0,0,0-.445,2.489v.485a21.322,21.322,0,0,0-2.216.918l-.345-.345A7.178,7.178,0,0,0,28.6,9.492H14.611a4.947,4.947,0,0,0-4.943,4.94V65.49a4.947,4.947,0,0,0,4.943,4.94h5.76a2.344,2.344,0,0,0,0-4.688h-5.76a.254.254,0,0,1-.255-.253V14.432a.254.254,0,0,1,.255-.253H27.472a7.211,7.211,0,0,0,2.053,4.328l.344.343a21.19,21.19,0,0,0-.918,2.215h-.486a7.177,7.177,0,0,0,0,14.354h.486a21.191,21.191,0,0,0,.918,2.215l-.346.345a7.191,7.191,0,0,0-.013,10.137l.017.017a7.191,7.191,0,0,0,10.151,0l.342-.343a21.123,21.123,0,0,0,2.216.918v.486a7.176,7.176,0,0,0,14.353,0v-.486c.378-.133.751-.279,1.12-.432a5.869,5.869,0,0,0,4.5,2.234q.162.423.347.836a5.86,5.86,0,0,0,8.286,8.287q.413.184.836.347a5.86,5.86,0,0,0,11.718,0q.423-.162.836-.347a5.861,5.861,0,0,0,8.287-8.287q.184-.412.346-.836a5.864,5.864,0,0,0,5.766-5.858,5.867,5.867,0,0,0-5.766-5.858q-.162-.423-.346-.836a5.861,5.861,0,0,0-8.287-8.287c-.276-.123-.554-.239-.836-.346a5.865,5.865,0,0,0-5.858-5.766,5.889,5.889,0,0,0-1.569.212,7.19,7.19,0,0,0-5.608-2.7h-.485a21.523,21.523,0,0,0-.918-2.216l.346-.345a7.212,7.212,0,0,0,2.051-4.326H105.31a.255.255,0,0,1,.255.254V65.49a.254.254,0,0,1-.255.253H39.121a2.344,2.344,0,0,0,0,4.688H105.31a4.947,4.947,0,0,0,4.943-4.94V14.432a4.947,4.947,0,0,0-4.943-4.94H70.227A7.271,7.271,0,0,0,69.3,8.351a7.192,7.192,0,0,0-10.151,0l-.342.343a21.523,21.523,0,0,0-2.216-.918V7.294A7.178,7.178,0,0,0,56.146,4.8h53.989a5.182,5.182,0,0,1,5.177,5.175V75.117H4.687V9.979A5.181,5.181,0,0,1,9.862,4.8Zm68.394,105.7H41.665l2.242-16.641H76.014ZM110.135,89.18H9.862a5.181,5.181,0,0,1-5.175-5.175V79.8H115.313v4.2a5.182,5.182,0,0,1-5.177,5.175Zm0,0" fill="url(#a)"/></g></g></svg>