<svg id="paperclip" xmlns="http://www.w3.org/2000/svg" width="24" height="36" viewBox="0 0 24 36">
  <path id="Path_96" data-name="Path 96" d="M18.4,8.364V25.3c0,3.255-2.148,5.891-4.8,5.891S8.8,28.555,8.8,25.3V6.891c0-2.032,1.344-3.682,3-3.682s3,1.649,3,3.682V22.355a1.362,1.362,0,0,1-1.2,1.473,1.362,1.362,0,0,1-1.2-1.473V8.364H10.6V22.355c0,2.032,1.344,3.682,3,3.682s3-1.649,3-3.682V6.891C16.6,3.636,14.452,1,11.8,1S7,3.636,7,6.891V25.3c0,4.477,2.952,8.1,6.6,8.1s6.6-3.623,6.6-8.1V8.364Z" transform="translate(-1.185 0.8)" fill="#707070"/>
  <path id="Path_97" data-name="Path 97" d="M0,0H24V36H0Z" fill="none"/>
</svg>
