<svg xmlns="http://www.w3.org/2000/svg" width="48.001" height="48" viewBox="0 0 48.001 48">
  <g id="pushpin" transform="translate(0 -0.006)">
    <g id="Group_71" data-name="Group 71" transform="translate(25.878 0.006)">
      <g id="Group_70" data-name="Group 70" transform="translate(0 0)">
        <path id="Path_89" data-name="Path 89" d="M291.861,6.3C287.625,2.064,283.8.006,280.153.006a.993.993,0,0,0-.706.294c-4.084,4.084-5.36,11.054,1,17.414,3.138,3.138,6.424,4.418,9.44,4.418a11.319,11.319,0,0,0,7.974-3.418,1.007,1.007,0,0,0,.292-.708C298.153,14.362,296.1,10.532,291.861,6.3Zm-10,10c-5.57-5.572-4.228-11.092-1.292-14.282,2.94.166,6.262,2.08,9.878,5.7s5.53,6.936,5.7,9.878C292.953,20.53,287.433,21.872,281.861,16.3Z" transform="translate(-276.03 -0.006)" fill="#707070"/>
      </g>
    </g>
    <g id="Group_73" data-name="Group 73" transform="translate(29.001 0.006)">
      <g id="Group_72" data-name="Group 72" transform="translate(0 0)">
        <path id="Path_90" data-name="Path 90" d="M327.344,17.006c-2.168,0-6.928-2.346-10.292-5.708s-5.708-8.124-5.708-10.292a1,1,0,1,0-2,0c0,2.986,2.822,8.24,6.292,11.708s8.722,6.292,11.708,6.292a1,1,0,0,0,0-2Z" transform="translate(-309.344 -0.006)" fill="#707070"/>
      </g>
    </g>
    <g id="Group_75" data-name="Group 75" transform="translate(17.555 10.007)">
      <g id="Group_74" data-name="Group 74">
        <path id="Path_91" data-name="Path 91" d="M207.406,116.981a1,1,0,0,0-1.414,0l-8,8c-.408.406-2.374.212-5.586-3s-3.406-5.18-3-5.586l8-8a1,1,0,0,0-1.414-1.414l-8,8c-1.308,1.308-1.208,4.206,3,8.414,2.742,2.742,4.928,3.74,6.48,3.74a2.655,2.655,0,0,0,1.934-.74l8-8A1,1,0,0,0,207.406,116.981Z" transform="translate(-187.251 -106.688)" fill="#707070"/>
      </g>
    </g>
    <g id="Group_77" data-name="Group 77" transform="translate(5.185 16.442)">
      <g id="Group_76" data-name="Group 76">
        <path id="Path_92" data-name="Path 92" d="M79.826,187.18a1,1,0,0,0-1.414,1.414c1.232,1.232,2.518,7.068-1,10.586-1.72,1.718-6.544-.958-12.586-7s-8.722-10.864-7-12.586c3.518-3.518,9.354-2.232,10.586-1a1,1,0,1,0,1.414-1.414c-2.124-2.124-9.25-3.164-13.414,1-3.478,3.478,1.888,10.3,7,15.414,3.978,3.978,8.992,8.108,12.66,8.108a3.747,3.747,0,0,0,2.754-1.108C82.99,196.43,81.952,189.306,79.826,187.18Z" transform="translate(-55.303 -175.322)" fill="#707070"/>
      </g>
    </g>
    <g id="Group_79" data-name="Group 79" transform="translate(0 31.007)">
      <g id="Group_78" data-name="Group 78" transform="translate(0)">
        <path id="Path_93" data-name="Path 93" d="M16.805,335.094a1,1,0,0,0-1.4-.214l-9.758,7.156,7.156-9.758a1,1,0,1,0-1.612-1.184l-11,15a1,1,0,0,0,1.4,1.4l15-11A1,1,0,0,0,16.805,335.094Z" transform="translate(0 -330.685)" fill="#707070"/>
      </g>
    </g>
  </g>
</svg>
