<svg xmlns="http://www.w3.org/2000/svg" width="80" height="80" viewBox="0 0 80 80">
  <g id="server" transform="translate(-12.626 -19.184)">
    <rect id="Rectangle_107" data-name="Rectangle 107" width="65.231" height="56.012" transform="translate(20.01 29.169)" fill="#324a5e"/>
    <g id="Group_220" data-name="Group 220" transform="translate(12.626 19.184)">
      <path id="Path_531" data-name="Path 531" d="M158.82,143.444H80.58a1.047,1.047,0,0,1-.88-1.157v-20.03a1.047,1.047,0,0,1,.88-1.157H158.82a1.047,1.047,0,0,1,.88,1.157v20.03C159.677,142.926,159.306,143.444,158.82,143.444Z" transform="translate(-79.7 -121.1)" fill="#687492"/>
      <path id="Path_532" data-name="Path 532" d="M158.82,238.144H80.58a1.047,1.047,0,0,1-.88-1.157v-20.03a1.047,1.047,0,0,1,.88-1.157H158.82a1.047,1.047,0,0,1,.88,1.157v20.03C159.677,237.626,159.306,238.144,158.82,238.144Z" transform="translate(-79.7 -186.972)" fill="#687492"/>
      <path id="Path_533" data-name="Path 533" d="M158.82,332.844H80.58a1.047,1.047,0,0,1-.88-1.157v-20.03a1.047,1.047,0,0,1,.88-1.157H158.82a1.047,1.047,0,0,1,.88,1.157v20.03C159.677,332.326,159.306,332.844,158.82,332.844Z" transform="translate(-79.7 -252.844)" fill="#687492"/>
    </g>
    <path id="Path_534" data-name="Path 534" d="M108.794,150.845h-5.347c-.185,0-.347-.213-.347-.457v-7.032c0-.243.162-.457.347-.457h5.347c.185,0,.347.213.347.457v7.032C109.142,150.663,108.98,150.845,108.794,150.845Z" transform="translate(-85.058 -117.08)" fill="#e64c3c"/>
    <path id="Path_535" data-name="Path 535" d="M150.694,150.845h-5.347c-.185,0-.347-.213-.347-.457v-7.032c0-.243.162-.457.347-.457h5.347c.185,0,.347.213.347.457v7.032C151.042,150.663,150.9,150.845,150.694,150.845Z" transform="translate(-117.259 -117.08)" fill="#f0c419"/>
    <path id="Path_536" data-name="Path 536" d="M192.694,150.845h-5.347c-.185,0-.347-.213-.347-.457v-7.032c0-.243.162-.457.347-.457h5.347c.185,0,.347.213.347.457v7.032C193.019,150.663,192.88,150.845,192.694,150.845Z" transform="translate(-149.536 -117.08)" fill="#24ae5f"/>
    <path id="Path_537" data-name="Path 537" d="M108.794,247.345h-5.347c-.185,0-.347-.213-.347-.457v-7.032c0-.243.162-.457.347-.457h5.347c.185,0,.347.213.347.457v7.032C109.142,247.163,108.98,247.345,108.794,247.345Z" transform="translate(-85.058 -184.204)" fill="#e64c3c"/>
    <path id="Path_538" data-name="Path 538" d="M150.694,247.345h-5.347c-.185,0-.347-.213-.347-.457v-7.032c0-.243.162-.457.347-.457h5.347c.185,0,.347.213.347.457v7.032C151.042,247.163,150.9,247.345,150.694,247.345Z" transform="translate(-117.259 -184.204)" fill="#f0c419"/>
    <path id="Path_539" data-name="Path 539" d="M192.694,247.345h-5.347c-.185,0-.347-.213-.347-.457v-7.032c0-.243.162-.457.347-.457h5.347c.185,0,.347.213.347.457v7.032C193.019,247.163,192.88,247.345,192.694,247.345Z" transform="translate(-149.536 -184.204)" fill="#24ae5f"/>
    <path id="Path_540" data-name="Path 540" d="M108.794,343.945h-5.347c-.185,0-.347-.213-.347-.457v-7.032c0-.243.162-.457.347-.457h5.347c.185,0,.347.213.347.457v7.032C109.142,343.732,108.98,343.945,108.794,343.945Z" transform="translate(-85.058 -251.397)" fill="#e64c3c"/>
    <path id="Path_541" data-name="Path 541" d="M150.694,343.945h-5.347c-.185,0-.347-.213-.347-.457v-7.032c0-.243.162-.457.347-.457h5.347c.185,0,.347.213.347.457v7.032C151.042,343.732,150.9,343.945,150.694,343.945Z" transform="translate(-117.259 -251.397)" fill="#f0c419"/>
    <path id="Path_542" data-name="Path 542" d="M192.694,343.945h-5.347c-.185,0-.347-.213-.347-.457v-7.032c0-.243.162-.457.347-.457h5.347c.185,0,.347.213.347.457v7.032C193.019,343.732,192.88,343.945,192.694,343.945Z" transform="translate(-149.536 -251.397)" fill="#24ae5f"/>
    <g id="Group_221" data-name="Group 221" transform="translate(70.241 23.476)">
      <path id="Path_543" data-name="Path 543" d="M385.951,148.959h-3.935c-.069,0-.116-.061-.116-.152V135.352c0-.091.046-.152.116-.152h3.935c.07,0,.116.061.116.152v13.455A.118.118,0,0,1,385.951,148.959Z" transform="translate(-369.562 -135.2)" fill="#fff"/>
      <path id="Path_544" data-name="Path 544" d="M359.351,148.959h-3.935c-.069,0-.116-.061-.116-.152V135.352c0-.091.046-.152.116-.152h3.935c.069,0,.116.061.116.152v13.455C359.467,148.9,359.42,148.959,359.351,148.959Z" transform="translate(-349.119 -135.2)" fill="#fff"/>
      <path id="Path_545" data-name="Path 545" d="M332.651,148.959h-3.935c-.069,0-.116-.061-.116-.152V135.352c0-.091.046-.152.116-.152h3.935c.069,0,.116.061.116.152v13.455C332.767,148.9,332.72,148.959,332.651,148.959Z" transform="translate(-328.6 -135.2)" fill="#fff"/>
      <path id="Path_546" data-name="Path 546" d="M385.951,243.66h-3.935c-.069,0-.116-.061-.116-.152V230.052c0-.091.046-.152.116-.152h3.935c.07,0,.116.061.116.152v13.455A.118.118,0,0,1,385.951,243.66Z" transform="translate(-369.562 -201.072)" fill="#fff"/>
      <path id="Path_547" data-name="Path 547" d="M359.351,243.66h-3.935c-.069,0-.116-.061-.116-.152V230.052c0-.091.046-.152.116-.152h3.935c.069,0,.116.061.116.152v13.455C359.467,243.6,359.42,243.66,359.351,243.66Z" transform="translate(-349.119 -201.072)" fill="#fff"/>
      <path id="Path_548" data-name="Path 548" d="M332.651,243.66h-3.935c-.069,0-.116-.061-.116-.152V230.052c0-.091.046-.152.116-.152h3.935c.069,0,.116.061.116.152v13.455C332.767,243.6,332.72,243.66,332.651,243.66Z" transform="translate(-328.6 -201.072)" fill="#fff"/>
      <path id="Path_549" data-name="Path 549" d="M385.951,338.459h-3.935c-.069,0-.116-.061-.116-.152V324.852c0-.091.046-.152.116-.152h3.935c.07,0,.116.061.116.152v13.455A.131.131,0,0,1,385.951,338.459Z" transform="translate(-369.562 -267.013)" fill="#fff"/>
      <path id="Path_550" data-name="Path 550" d="M359.351,338.459h-3.935c-.069,0-.116-.061-.116-.152V324.852c0-.091.046-.152.116-.152h3.935c.069,0,.116.061.116.152v13.455C359.467,338.368,359.42,338.459,359.351,338.459Z" transform="translate(-349.119 -267.013)" fill="#fff"/>
      <path id="Path_551" data-name="Path 551" d="M332.651,338.459h-3.935c-.069,0-.116-.061-.116-.152V324.852c0-.091.046-.152.116-.152h3.935c.069,0,.116.061.116.152v13.455C332.767,338.368,332.72,338.459,332.651,338.459Z" transform="translate(-328.6 -267.013)" fill="#fff"/>
    </g>
  </g>
</svg>
