<svg xmlns="http://www.w3.org/2000/svg" width="80" height="80" viewBox="0 0 80 80">
  <g id="speed" transform="translate(0)" opacity="0.8">
    <path id="Path_453" data-name="Path 453" d="M46.328,7.5A38.828,38.828,0,1,0,85.156,46.328,38.828,38.828,0,0,0,46.328,7.5Z" transform="translate(-6.328 -6.328)" fill="#687492"/>
    <path id="Path_454" data-name="Path 454" d="M236.034,7.5c-1.247,0-2.48.061-3.7.176a38.828,38.828,0,0,1,0,77.3c1.217.115,2.45.176,3.7.176a38.828,38.828,0,1,0,0-77.656Z" transform="translate(-196.034 -6.328)" fill="#687492"/>
    <path id="Path_455" data-name="Path 455" d="M82.683,50.587a32.1,32.1,0,1,0,32.1,32.1A32.1,32.1,0,0,0,82.683,50.587Z" transform="translate(-42.683 -42.683)" fill="#fff"/>
    <path id="Path_456" data-name="Path 456" d="M202.552,130.706a3.025,3.025,0,0,1,0-4.278l14.322-14.322A139.8,139.8,0,0,1,232.4,98.713a1.532,1.532,0,0,1,2.144,2.144,139.824,139.824,0,0,1-13.393,15.526L206.83,130.706A3.025,3.025,0,0,1,202.552,130.706Z" transform="translate(-170.156 -83.033)" fill="#69d8e4"/>
    <path id="Path_457" data-name="Path 457" d="M386.054,140.079c0,.026,0,.052,0,.078h6.994c0-.026,0-.052,0-.078a31.976,31.976,0,0,0-8.237-21.467q-2.137,2.842-4.423,5.581A25,25,0,0,1,386.054,140.079Z" transform="translate(-320.952 -100.079)" fill="#fd7e42"/>
    <path id="Path_458" data-name="Path 458" d="M271.964,63.31q2.734-2.283,5.578-4.42A31.978,31.978,0,0,0,256,50.587v6.994A25,25,0,0,1,271.964,63.31Z" transform="translate(-216.001 -42.683)" fill="#f9c301"/>
    <path id="Path_459" data-name="Path 459" d="M133.237,57.581V50.587a32,32,0,0,0-22.734,9.44l4.945,4.945A25.024,25.024,0,0,1,133.237,57.581Z" transform="translate(-93.237 -42.683)" fill="#fce25c"/>
    <path id="Path_460" data-name="Path 460" d="M57.581,133.66a25.022,25.022,0,0,1,7.314-17.71L59.949,111a31.993,31.993,0,0,0-9.362,22.655c0,.026,0,.052,0,.078h6.994C57.582,133.713,57.581,133.687,57.581,133.66Z" transform="translate(-42.683 -93.66)" fill="#7fd061"/>
    <circle id="Ellipse_26" data-name="Ellipse 26" cx="5.206" cy="5.206" r="5.206" transform="translate(34.794 34.864)" fill="#fbd307"/>
    <path id="Path_461" data-name="Path 461" d="M383.655,256.5h-6.994a25.025,25.025,0,0,1-7.4,17.724l4.945,4.945A32,32,0,0,0,383.655,256.5Z" transform="translate(-311.561 -216.423)" fill="#fc5327"/>
    <path id="Path_462" data-name="Path 462" d="M57.587,256.5H50.593a32,32,0,0,0,9.453,22.669l4.945-4.945A25.025,25.025,0,0,1,57.587,256.5Z" transform="translate(-42.688 -216.423)" fill="#93d87b"/>
    <path id="Path_463" data-name="Path 463" d="M217.136,404.987H202.347a1.172,1.172,0,0,0,0,2.344h14.789a1.172,1.172,0,1,0,0-2.344Z" transform="translate(-169.741 -341.708)"/>
    <path id="Path_464" data-name="Path 464" d="M217.136,367.99H202.347a1.172,1.172,0,1,0,0,2.344h14.789a1.172,1.172,0,0,0,0-2.344Z" transform="translate(-169.741 -310.492)"/>
    <path id="Path_465" data-name="Path 465" d="M68.284,11.716A40.009,40.009,0,0,0,4.717,21.14a1.172,1.172,0,1,0,2.066,1.107,37.464,37.464,0,1,1-2.154,4.806,1.172,1.172,0,0,0-2.2-.806A40.006,40.006,0,1,0,68.284,11.716Z"/>
    <path id="Path_466" data-name="Path 466" d="M229.17,95.114a2.706,2.706,0,0,0-3.784-3.784,141.018,141.018,0,0,0-15.657,13.505l-5.464,5.464a6.379,6.379,0,0,0-6.788,6.788l-2.071,2.071a4.2,4.2,0,1,0,5.935,5.935l2.07-2.07a6.379,6.379,0,0,0,6.788-6.788l5.464-5.464A141.108,141.108,0,0,0,229.17,95.114Zm-29.485,28.322a1.853,1.853,0,0,1-2.621-2.621l1.151-1.151a6.421,6.421,0,0,0,2.621,2.621Zm4.154-2.741a4.034,4.034,0,1,1,3.984-4.668v0A4.038,4.038,0,0,1,203.839,120.7Zm5.624-7.037a6.421,6.421,0,0,0-2.621-2.621l4.544-4.544a138.676,138.676,0,0,1,15.4-13.28.36.36,0,0,1,.5.5,138.739,138.739,0,0,1-13.28,15.4Z" transform="translate(-163.839 -76.592)"/>
    <path id="Path_467" data-name="Path 467" d="M94.147,48.228a33.252,33.252,0,0,0-41.355,4.63h0A33.263,33.263,0,0,0,52.8,99.834c.01.01.019.022.029.032a33.268,33.268,0,0,0,46.993.055l.015-.017a33.258,33.258,0,0,0,4.694-41.251,1.172,1.172,0,0,0-1.984,1.248,30.81,30.81,0,0,1,4.71,15.348h-4.653a25.946,25.946,0,0,0-2.748-10.66,1.172,1.172,0,1,0-2.1,1.05,23.929,23.929,0,0,1-4.538,27.674,1.172,1.172,0,0,0,0,1.66l4.1,4.1a30.918,30.918,0,0,1-41.932,0l4.1-4.1a1.172,1.172,0,0,0,0-1.66A23.933,23.933,0,0,1,87.149,54.979a1.172,1.172,0,0,0,1.059-2.091,25.942,25.942,0,0,0-10.681-2.794V45.44a30.8,30.8,0,0,1,15.365,4.767,1.172,1.172,0,0,0,1.256-1.979ZM102.6,77.592h4.653a30.679,30.679,0,0,1-8.268,19.827l-3.29-3.29A26.061,26.061,0,0,0,102.6,77.592ZM75.183,45.442v4.653a26.055,26.055,0,0,0-16.6,6.9l-3.29-3.29A30.674,30.674,0,0,1,75.183,45.442ZM57.017,94.128l-3.29,3.29a30.678,30.678,0,0,1-8.268-19.827h4.653A26.062,26.062,0,0,0,57.017,94.128ZM50.1,75.248H45.45a30.688,30.688,0,0,1,8.19-19.886l3.29,3.29A26.071,26.071,0,0,0,50.1,75.248Z" transform="translate(-36.355 -36.342)"/>
  </g>
</svg>
