<svg xmlns="http://www.w3.org/2000/svg" xmlns:xlink="http://www.w3.org/1999/xlink" width="120" height="120" viewBox="0 0 120 120"><defs><linearGradient id="a" x1="0.5" x2="0.5" y2="1" gradientUnits="objectBoundingBox"><stop offset="0" stop-color="#17ebab"/><stop offset="1" stop-color="#42bff5"/></linearGradient><clipPath id="b"><rect width="120" height="120" transform="translate(188 1121)" fill="url(#a)"/></clipPath></defs><g transform="translate(-188 -1121)" clip-path="url(#b)"><g transform="translate(188.006 1121.003)"><path d="M119.664,26.8l-5.208-14.308a5.448,5.448,0,0,0-6.985-3.257l-1.817.661-.026-.072a5.57,5.57,0,1,0-10.468,3.81l.026.072L62.582,25.572l-.026-.072a5.57,5.57,0,1,0-10.468,3.81L53.36,32.8l-7.254,2.64-1.536-4.219.117-.043a4.8,4.8,0,1,0-3.281-9.012l-9.246,3.365a4.8,4.8,0,1,0,3.281,9.013l.117-.043,1.536,4.219-6.375,2.321a5.556,5.556,0,0,0-8.784,5.942l-11.261,4.1A5.566,5.566,0,0,0,.337,55.2L4.791,67.438a5.566,5.566,0,0,0,10.565-3.492l11.267-4.1a5.553,5.553,0,0,0,10.548-1.095l7.947-2.892a14.766,14.766,0,0,0,2.223,7.695L16.874,103.843a5.049,5.049,0,0,0,1.015,10H27.05a5.044,5.044,0,0,0,2.781-9.255L54.607,71.821v32a5.04,5.04,0,0,0,.81,10.016h9.162a5.04,5.04,0,0,0,.809-10.016v-32l24.776,32.761a5.044,5.044,0,0,0,2.781,9.255h9.161a5.049,5.049,0,0,0,1.014-10L72.653,63.553a14.718,14.718,0,0,0,.793-14.131l30.679-11.166.027.073a5.57,5.57,0,1,0,10.468-3.811l-.026-.072,1.817-.656a5.457,5.457,0,0,0,3.254-6.991Zm-50.4,35.907A11.578,11.578,0,1,1,71.6,55.758a11.578,11.578,0,0,1-2.333,6.948Zm-7.158,7.781v33.254H57.888V70.486a14.724,14.724,0,0,0,4.219,0ZM56.539,25.253a2.288,2.288,0,0,1,2.933,1.371l5.5,15.11a14.965,14.965,0,0,0-5.181-.861L55.172,28.187a2.292,2.292,0,0,1,1.367-2.934ZM32.378,30.561c0-.826-.058-1.594.9-1.941l9.248-3.365A1.514,1.514,0,1,1,43.561,28.1l-9.242,3.362a1.517,1.517,0,0,1-1.941-.9Zm6.263,2.823,2.845-1.042,1.536,4.219-2.845,1.031Zm1.116,7.864,5.928-2.156,8.793-3.2,1.969,5.417a15.07,15.07,0,0,0-10.887,10.9l-8.729,3.176L32.623,43.841ZM10.808,67.684a2.29,2.29,0,0,1-2.933-1.369L3.42,54.078a2.289,2.289,0,0,1,4.3-1.566l4.455,12.238a2.293,2.293,0,0,1-1.368,2.935Zm3.441-6.828-2.437-6.7,11.227-4.085,2.437,6.694Zm19.544-2.25a2.289,2.289,0,0,1-4.225-.187L25.115,46.181a2.289,2.289,0,1,1,4.3-1.566l4.455,12.239a2.276,2.276,0,0,1-.077,1.748Zm15.64,7.624A15.1,15.1,0,0,0,52.8,68.776L26.353,103.743H21.066ZM27.049,110.557H17.888a1.768,1.768,0,1,1,0-3.535h9.161a1.768,1.768,0,1,1,0,3.535Zm39.3-1.768a1.769,1.769,0,0,1-1.766,1.768H55.417a1.768,1.768,0,0,1,0-3.535h9.162A1.768,1.768,0,0,1,66.344,108.789Zm35.761,1.768H92.945a1.768,1.768,0,0,1,0-3.535h9.161a1.768,1.768,0,1,1,0,3.535Zm-3.177-6.816H93.641L67.2,68.773a15.119,15.119,0,0,0,3.364-2.546ZM71.693,46.567a15.132,15.132,0,0,0-2.328-2.359l-.922-2.531L63.7,28.655l32.6-11.867L103,35.172Zm39.765-9.177a2.289,2.289,0,0,1-4.225-.187L98.245,12.51a2.29,2.29,0,0,1,4.3-1.566l.585,1.609v0l7.814,21.468.587,1.611a2.274,2.274,0,0,1-.077,1.753Zm3.828-6.689-1.818.656-6.692-18.38,1.817-.656a2.169,2.169,0,0,1,2.78,1.3l5.208,14.309A2.17,2.17,0,0,1,115.285,30.7Z" fill="url(#a)"/><path d="M60,48.373a7.382,7.382,0,1,0,7.382,7.382A7.382,7.382,0,0,0,60,48.373Zm0,11.484a4.1,4.1,0,1,1,4.1-4.1,4.1,4.1,0,0,1-4.1,4.1Z" fill="url(#a)"/></g></g></svg>