<svg xmlns="http://www.w3.org/2000/svg" xmlns:xlink="http://www.w3.org/1999/xlink" width="1833" height="545.999" viewBox="0 0 1833 545.999"><defs><linearGradient id="a" x1="0.5" x2="0.5" y2="1" gradientUnits="objectBoundingBox"><stop offset="0" stop-color="#17ebab"/><stop offset="1" stop-color="#42bff5"/></linearGradient></defs><path d="M1543.191,262.958a208.88,208.88,0,0,1-27.469-6.693,152.2,152.2,0,0,1-24.268-9.734l0,0h172.511A197.8,197.8,0,0,1,1578.332,266,206.552,206.552,0,0,1,1543.191,262.958Zm-334.156,0a208.926,208.926,0,0,1-27.47-6.693,151.944,151.944,0,0,1-24.268-9.734l0,0H1329.8A197.8,197.8,0,0,1,1244.174,266,206.542,206.542,0,0,1,1209.035,262.958Zm-334.157,0a208.912,208.912,0,0,1-27.469-6.693,152.2,152.2,0,0,1-24.268-9.734l0,0H995.648A197.8,197.8,0,0,1,910.018,266,206.551,206.551,0,0,1,874.877,262.958Zm-334.157,0a208.877,208.877,0,0,1-27.469-6.693,151.947,151.947,0,0,1-24.268-9.734l0,0H661.491A197.8,197.8,0,0,1,575.861,266,206.559,206.559,0,0,1,540.72,262.958Zm-334.157,0a208.947,208.947,0,0,1-27.469-6.693,152.2,152.2,0,0,1-24.268-9.734l0,0h172.51A197.794,197.794,0,0,1,241.7,266,206.544,206.544,0,0,1,206.564,262.958Zm1457.509-16.481.043-.021-173.374.009a121.079,121.079,0,0,0-22.589-10.162,166.759,166.759,0,0,0-24.284-6.385,173.569,173.569,0,0,0-31.406-2.861c-27.662,0-55.432,6.532-82.537,19.415l-173.314.009.077.048H995.648l.042-.02.042-.021-173.254.008h0l.051.032H661.491l.039-.018.013-.006-173.2.008c-.332-.208-8.28-5.15-21.966-9.965a166.4,166.4,0,0,0-24.5-6.539,173.478,173.478,0,0,0-31.891-2.951c-27.7,0-55.5,6.548-82.639,19.463l160.995-.008h0l.026.016H327.334l.012-.005.006,0L147,246.529V226H1817.31v16.429c-11.993-5.74-37.123-15.371-70.69-15.371-27.65,0-55.409,6.527-82.5,19.4l153.194-.007v-4.02h0a83.254,83.254,0,0,1,7.69,4.1H1663.962ZM661.543,246.5l160.936-.008c-.853-.531-8.719-5.326-22.226-10.049a166.443,166.443,0,0,0-24.412-6.476,173.562,173.562,0,0,0-31.694-2.913C716.461,227.058,688.669,233.6,661.543,246.5Zm334.191-.016,160.877-.008h0c-.868-.538-8.85-5.387-22.423-10.111a166.649,166.649,0,0,0-24.343-6.427,173.574,173.574,0,0,0-31.539-2.885C1050.63,227.057,1022.849,233.6,995.734,246.488Zm495.717.04h0Zm-161.646,0,.06-.028.059-.029,160.816-.007h0l.1.064Zm-172.511,0h0Zm-334.156,0h0Zm-334.157,0h0ZM147,226V-240H-.309v-16.429h0a83.405,83.405,0,0,1-7.69-4.1H153.039l-.111.052-.042.021,173.373-.009h0l-.1-.064H487.2l-.059.028-.06.029,173.315-.009h0l-.077-.048H821.353l-.043.02-.042.021,173.254-.008-.051-.032h161.04l-.038.018-.013.006,173.2-.008h0l-.025-.016h161.04l-.012.005-.006,0L1670-260.529V-240h-3V226ZM1350.619-250.548a166.419,166.419,0,0,0,24.5,6.539,173.483,173.483,0,0,0,31.891,2.951c27.7,0,55.5-6.548,82.64-19.463l-161,.008C1328.985-260.305,1336.933-255.363,1350.619-250.548ZM660.39-260.481c.868.538,8.851,5.387,22.424,10.111a166.605,166.605,0,0,0,24.342,6.427,173.575,173.575,0,0,0,31.539,2.885c27.675,0,55.456-6.538,82.571-19.431ZM348.849-250.3a166.7,166.7,0,0,0,24.284,6.385,173.559,173.559,0,0,0,31.405,2.861c27.662,0,55.432-6.532,82.537-19.415l-160.816.007A121.08,121.08,0,0,0,348.849-250.3ZM70.381-241.058c27.651,0,55.409-6.527,82.5-19.4l-153.194.007v4.02C11.684-250.689,36.814-241.058,70.381-241.058ZM994.521-260.5c.853.531,8.719,5.326,22.227,10.049a166.432,166.432,0,0,0,24.411,6.476,173.562,173.562,0,0,0,31.693,2.913c27.687,0,55.479-6.542,82.606-19.446Zm495.146-.032A197.8,197.8,0,0,1,1575.3-280a206.542,206.542,0,0,1,35.14,3.042,208.928,208.928,0,0,1,27.47,6.693,152.215,152.215,0,0,1,24.268,9.734l0,0Zm-161.65,0h0ZM1328.02-260.529Zm-172.511,0A197.8,197.8,0,0,1,1241.14-280a206.561,206.561,0,0,1,35.141,3.042,208.88,208.88,0,0,1,27.469,6.693,151.986,151.986,0,0,1,24.269,9.734l0,0Zm-161.65,0h0ZM993.864-260.529Zm-172.511,0A197.792,197.792,0,0,1,906.983-280a206.542,206.542,0,0,1,35.14,3.042,208.927,208.927,0,0,1,27.47,6.693,152.212,152.212,0,0,1,24.268,9.734l0,0Zm-161.65,0h0ZM659.706-260.529Zm-172.511,0A197.8,197.8,0,0,1,572.826-280a206.551,206.551,0,0,1,35.141,3.042,208.947,208.947,0,0,1,27.469,6.693,151.9,151.9,0,0,1,24.268,9.734l0,0Zm-161.65,0h0ZM325.55-260.529Zm-172.511,0A197.8,197.8,0,0,1,238.669-280a206.541,206.541,0,0,1,35.14,3.042,208.89,208.89,0,0,1,27.47,6.693,152.212,152.212,0,0,1,24.268,9.734l0,0Z" transform="translate(8 280)" fill="url(#a)"/></svg>